<svg width="548" height="548" viewBox="0 0 548 548" fill="none" xmlns="http://www.w3.org/2000/svg">
<rect width="547.24" height="547.24" rx="24" fill="white"/>
<g clip-path="url(#clip0_219_321)">
<g clip-path="url(#clip1_219_321)">
<path d="M59.0417 296.359V183.925H82.5295V296.359H59.0417ZM113.017 260.907V242.519H140.549C147.289 242.519 152.526 240.805 156.259 237.376C160.044 233.896 161.937 228.961 161.937 222.572V222.416C161.937 216.027 160.044 211.118 156.259 207.69C152.526 204.262 147.289 202.548 140.549 202.548H113.017V183.925H146.304C154.185 183.925 161.081 185.536 166.992 188.756C172.903 191.925 177.491 196.392 180.758 202.158C184.077 207.924 185.735 214.651 185.735 222.338V222.494C185.735 230.234 184.077 236.987 180.758 242.753C177.491 248.518 172.903 252.986 166.992 256.154C161.081 259.323 154.185 260.907 146.304 260.907H113.017ZM101.195 296.359V183.925H124.683V296.359H101.195ZM181.924 296.359L221.122 183.925H241.811V205.742H234.656L206.579 296.359H181.924ZM203.001 269.088L208.756 251.479H261.099L266.853 269.088H203.001ZM263.198 296.359L235.121 205.742V183.925H248.732L287.853 296.359H263.198ZM338.017 298.307C329.15 298.307 321.399 297.008 314.762 294.411C308.178 291.762 302.992 287.996 299.207 283.113C295.423 278.179 293.296 272.257 292.831 265.348L292.752 264.102H314.918L315.073 264.959C315.592 267.868 316.888 270.387 318.963 272.517C321.088 274.595 323.836 276.231 327.205 277.425C330.576 278.568 334.387 279.14 338.639 279.14C342.994 279.14 346.727 278.568 349.838 277.425C353.001 276.231 355.438 274.568 357.149 272.439C358.912 270.257 359.793 267.738 359.793 264.881V264.803C359.793 261.011 358.29 258.05 355.282 255.92C352.327 253.739 347.35 251.921 340.35 250.466L328.528 248.129C317.484 245.895 309.162 242.129 303.562 236.831C297.962 231.533 295.163 224.65 295.163 216.183V216.105C295.163 209.248 297.004 203.275 300.685 198.184C304.366 193.042 309.422 189.068 315.852 186.263C322.28 183.406 329.643 181.978 337.939 181.978C346.598 181.978 354.064 183.328 360.338 186.029C366.664 188.73 371.589 192.548 375.114 197.483C378.641 202.418 380.584 208.158 380.948 214.703L381.025 216.183H358.86L358.783 215.248C358.367 212.287 357.252 209.768 355.438 207.69C353.624 205.56 351.212 203.924 348.206 202.781C345.249 201.638 341.827 201.067 337.939 201.067C333.946 201.067 330.498 201.665 327.595 202.859C324.692 204.002 322.462 205.586 320.906 207.612C319.403 209.638 318.652 212.001 318.652 214.703V214.78C318.652 218.313 320.155 221.17 323.161 223.351C326.169 225.533 330.888 227.273 337.317 228.572L349.216 230.987C357.046 232.545 363.474 234.701 368.504 237.454C373.534 240.207 377.241 243.688 379.626 247.895C382.063 252.051 383.281 257.063 383.281 262.933V263.011C383.281 270.231 381.467 276.49 377.837 281.789C374.259 287.035 369.074 291.113 362.282 294.022C355.541 296.879 347.453 298.307 338.017 298.307ZM388.18 296.359L427.378 183.925H448.067V205.742H440.912L412.835 296.359H388.18ZM409.258 269.088L415.013 251.479H467.355L473.109 269.088H409.258ZM469.454 296.359L441.378 205.742V183.925H454.989L494.109 296.359H469.454Z" fill="black"/>
</g>
<path d="M191.534 355.861V318.873H206.463C208.889 318.873 210.982 319.296 212.74 320.142C214.499 320.987 215.835 322.185 216.749 323.735C217.699 325.249 218.173 327.046 218.173 329.124C218.173 331.203 217.699 333.034 216.749 334.619C215.835 336.17 214.499 337.385 212.74 338.265C210.982 339.111 208.889 339.533 206.463 339.533H193.961V355.861H191.534ZM193.961 337.261H206.357C209.382 337.261 211.685 336.522 213.268 335.042C214.885 333.563 215.694 331.59 215.694 329.124C215.694 326.729 214.885 324.809 213.268 323.365C211.685 321.885 209.382 321.146 206.357 321.146H193.961V337.261ZM229.974 356.389C228.075 356.389 226.405 356.072 224.963 355.438C223.521 354.769 222.396 353.853 221.587 352.69C220.778 351.493 220.373 350.119 220.373 348.569C220.373 346.173 221.305 344.254 223.169 342.809C225.033 341.33 227.512 340.59 230.607 340.59C233.702 340.59 236.445 341.348 238.836 342.862V338.53C238.836 336.134 238.185 334.355 236.884 333.193C235.583 331.995 233.719 331.396 231.293 331.396C230.097 331.396 228.848 331.59 227.547 331.978C226.246 332.365 224.752 332.999 223.064 333.88L222.061 331.819C223.714 330.974 225.297 330.357 226.809 329.97C228.321 329.547 229.833 329.336 231.345 329.336C234.475 329.336 236.884 330.093 238.572 331.608C240.295 333.087 241.157 335.254 241.157 338.107V355.861H238.836V352.955C237.641 354.046 236.304 354.892 234.827 355.491C233.35 356.09 231.732 356.389 229.974 356.389ZM222.694 348.516C222.694 350.207 223.398 351.598 224.804 352.69C226.211 353.782 227.987 354.328 230.132 354.328C231.996 354.328 233.631 354.011 235.038 353.377C236.445 352.708 237.711 351.774 238.836 350.577V345.187C237.676 344.307 236.41 343.655 235.038 343.232C233.666 342.809 232.102 342.598 230.343 342.598C228.057 342.598 226.211 343.144 224.804 344.236C223.398 345.328 222.694 346.755 222.694 348.516ZM259.944 356.389C257.554 356.389 255.373 355.79 253.404 354.593C251.433 353.395 249.868 351.774 248.708 349.731C247.582 347.688 247.02 345.399 247.02 342.862C247.02 340.326 247.582 338.036 248.708 335.993C249.868 333.95 251.433 332.33 253.404 331.132C255.373 329.935 257.554 329.336 259.944 329.336C261.704 329.336 263.459 329.688 265.219 330.392C267.012 331.097 268.578 332.065 269.913 333.298L268.33 335.201C267.205 334.073 265.903 333.193 264.428 332.559C262.985 331.89 261.489 331.555 259.944 331.555C257.974 331.555 256.181 332.065 254.562 333.087C252.979 334.073 251.714 335.43 250.765 337.156C249.851 338.847 249.394 340.749 249.394 342.862C249.394 344.976 249.851 346.896 250.765 348.622C251.714 350.313 252.979 351.669 254.562 352.69C256.181 353.677 257.974 354.17 259.944 354.17C261.489 354.17 262.985 353.835 264.428 353.166C265.903 352.497 267.205 351.616 268.33 350.524L269.913 352.426C268.578 353.659 267.012 354.628 265.219 355.332C263.459 356.037 261.704 356.389 259.944 356.389ZM274.813 355.861V318.873L277.137 318.292V341.964L291.8 329.864H295.073L279.775 342.44L295.703 355.861H292.171L277.137 343.074V355.861H274.813ZM305.907 356.389C304.007 356.389 302.338 356.072 300.896 355.438C299.453 354.769 298.328 353.853 297.521 352.69C296.709 351.493 296.305 350.119 296.305 348.569C296.305 346.173 297.236 344.254 299.103 342.809C300.966 341.33 303.443 340.59 306.538 340.59C309.633 340.59 312.377 341.348 314.768 342.862V338.53C314.768 336.134 314.116 334.355 312.818 333.193C311.516 331.995 309.653 331.396 307.226 331.396C306.031 331.396 304.782 331.59 303.48 331.978C302.177 332.365 300.686 332.999 298.996 333.88L297.994 331.819C299.647 330.974 301.23 330.357 302.742 329.97C304.254 329.547 305.767 329.336 307.279 329.336C310.407 329.336 312.818 330.093 314.504 331.608C316.226 333.087 317.088 335.254 317.088 338.107V355.861H314.768V352.955C313.572 354.046 312.237 354.892 310.758 355.491C309.282 356.09 307.663 356.389 305.907 356.389ZM298.625 348.516C298.625 350.207 299.33 351.598 300.735 352.69C302.144 353.782 303.921 354.328 306.064 354.328C307.926 354.328 309.562 354.011 310.972 353.377C312.377 352.708 313.642 351.774 314.768 350.577V345.187C313.609 344.307 312.34 343.655 310.972 343.232C309.6 342.809 308.034 342.598 306.274 342.598C303.991 342.598 302.144 343.144 300.735 344.236C299.33 345.328 298.625 346.755 298.625 348.516ZM336.667 367.168C334.945 367.168 333.239 366.922 331.549 366.428C329.863 365.935 328.314 365.248 326.908 364.368L328.227 362.466C329.773 363.346 331.182 363.98 332.447 364.368C333.75 364.755 335.101 364.949 336.511 364.949C339.218 364.949 341.275 364.297 342.68 362.994C344.09 361.691 344.79 359.753 344.79 357.182V352.743C342.433 355.174 339.461 356.389 335.876 356.389C333.486 356.389 331.306 355.79 329.336 354.593C327.366 353.395 325.8 351.774 324.642 349.731C323.517 347.688 322.952 345.399 322.952 342.862C322.952 340.326 323.517 338.036 324.642 335.993C325.8 333.95 327.366 332.33 329.336 331.132C331.306 329.935 333.486 329.336 335.876 329.336C337.529 329.336 339.128 329.67 340.677 330.339C342.223 330.974 343.595 331.837 344.79 332.929V329.864H347.11V357.076C347.11 360.387 346.2 362.888 344.37 364.579C342.577 366.305 340.01 367.168 336.667 367.168ZM335.876 354.17C337.809 354.17 339.552 353.782 341.098 353.007C342.68 352.197 343.912 351.14 344.79 349.837V335.888C343.875 334.655 342.627 333.633 341.044 332.823C339.461 331.977 337.739 331.555 335.876 331.555C333.906 331.555 332.113 332.065 330.494 333.087C328.911 334.073 327.646 335.43 326.698 337.156C325.783 338.847 325.326 340.749 325.326 342.862C325.326 344.976 325.783 346.896 326.698 348.622C327.646 350.313 328.911 351.669 330.494 352.69C332.113 353.677 333.906 354.17 335.876 354.17ZM354.302 355.861V329.864H356.622V355.861H354.302ZM355.464 323.999C354.899 323.999 354.425 323.805 354.038 323.418C353.651 323.03 353.457 322.554 353.457 321.991C353.457 321.427 353.651 320.952 354.038 320.564C354.425 320.177 354.899 319.983 355.464 319.983C356.061 319.983 356.535 320.177 356.886 320.564C357.273 320.952 357.467 321.427 357.467 321.991C357.467 322.554 357.273 323.03 356.886 323.418C356.535 323.805 356.061 323.999 355.464 323.999ZM363.78 355.861V329.864H366.101V333.51C368.211 330.727 371.079 329.336 374.701 329.336C376.667 329.336 378.394 329.758 379.869 330.604C381.382 331.414 382.54 332.576 383.352 334.091C384.197 335.571 384.617 337.296 384.617 339.269V355.861H382.297V339.903C382.297 337.296 381.576 335.254 380.133 333.774C378.691 332.259 376.704 331.502 374.174 331.502C372.414 331.502 370.832 331.925 369.426 332.77C368.017 333.58 366.908 334.76 366.101 336.31V355.861H363.78ZM404.205 367.168C402.478 367.168 400.776 366.922 399.086 366.428C397.397 365.935 395.851 365.248 394.446 364.368L395.765 362.466C397.31 363.346 398.715 363.98 399.985 364.368C401.283 364.755 402.639 364.949 404.044 364.949C406.752 364.949 408.808 364.297 410.218 362.994C411.623 361.691 412.328 359.753 412.328 357.182V352.743C409.97 355.174 406.999 356.389 403.414 356.389C401.019 356.389 398.839 355.79 396.869 354.593C394.899 353.395 393.337 351.774 392.175 349.731C391.05 347.688 390.49 345.399 390.49 342.862C390.49 340.326 391.05 338.036 392.175 335.993C393.337 333.95 394.899 332.33 396.869 331.132C398.839 329.935 401.019 329.336 403.414 329.336C405.066 329.336 406.665 329.67 408.211 330.339C409.76 330.974 411.132 331.837 412.328 332.929V329.864H414.648V357.076C414.648 360.387 413.733 362.888 411.903 364.579C410.11 366.305 407.543 367.168 404.205 367.168ZM403.414 354.17C405.346 354.17 407.086 353.782 408.635 353.007C410.218 352.197 411.446 351.14 412.328 349.837V335.888C411.413 334.655 410.164 333.633 408.581 332.823C406.999 331.977 405.276 331.555 403.414 331.555C401.444 331.555 399.647 332.065 398.031 333.087C396.449 334.073 395.184 335.43 394.232 337.156C393.317 338.847 392.863 340.749 392.863 342.862C392.863 344.976 393.317 346.896 394.232 348.622C395.184 350.313 396.449 351.669 398.031 352.69C399.647 353.677 401.444 354.17 403.414 354.17ZM445.717 356.442C442.762 356.442 440.001 355.843 437.434 354.645C434.866 353.412 432.616 351.651 430.683 349.361L432.583 347.776C434.339 349.855 436.329 351.44 438.542 352.532C440.792 353.624 443.187 354.17 445.717 354.17C447.827 354.17 449.711 353.8 451.363 353.06C453.016 352.32 454.314 351.317 455.266 350.048C456.214 348.745 456.688 347.283 456.688 345.663C456.688 343.514 455.95 341.876 454.475 340.749C453.032 339.586 450.588 338.723 447.143 338.16L442.659 337.42C438.967 336.821 436.259 335.782 434.532 334.302C432.81 332.823 431.948 330.797 431.948 328.226C431.948 326.253 432.459 324.527 433.477 323.048C434.532 321.568 435.995 320.406 437.858 319.56C439.721 318.715 441.847 318.292 444.242 318.292C446.665 318.292 449.092 318.715 451.52 319.56C453.947 320.371 456.251 321.586 458.431 323.206L456.951 325.214C452.801 322.114 448.565 320.564 444.242 320.564C442.342 320.564 440.652 320.881 439.177 321.515C437.697 322.149 436.539 323.048 435.695 324.21C434.85 325.338 434.429 326.641 434.429 328.12C434.429 330.058 435.08 331.573 436.379 332.664C437.681 333.721 439.861 334.496 442.923 334.989L447.407 335.729C451.59 336.398 454.598 337.526 456.424 339.111C458.254 340.661 459.169 342.897 459.169 345.821C459.169 347.864 458.588 349.696 457.429 351.317C456.267 352.902 454.668 354.152 452.628 355.068C450.621 355.984 448.318 356.442 445.717 356.442ZM460.965 355.861L476.37 318.873H479.375L494.726 355.861H492.088L486.97 343.338H468.668L463.496 355.861H460.965ZM469.562 341.171H486.076L477.846 321.146L469.562 341.171Z" fill="black"/>
</g>
<defs>
<clipPath id="clip0_219_321">
<rect width="443" height="187" fill="white" transform="translate(52.1199 180.12)"/>
</clipPath>
<clipPath id="clip1_219_321">
<rect width="436.778" height="117.187" fill="white" transform="translate(58.3418 181.666)"/>
</clipPath>
</defs>
</svg>
