<svg width="163" height="70" viewBox="0 0 163 70" fill="none" xmlns="http://www.w3.org/2000/svg">
<g clip-path="url(#clip0_264_303)">
<g clip-path="url(#clip1_264_303)">
<path d="M0.710938 43.4V1.31254H9.44605V43.4H0.710938ZM20.7843 30.1292V23.2459H31.0235C33.5303 23.2459 35.4778 22.6042 36.8662 21.3209C38.2739 20.0181 38.9777 18.1709 38.9777 15.7792V15.7209C38.9777 13.3292 38.2739 11.4917 36.8662 10.2084C35.4778 8.92504 33.5303 8.28337 31.0235 8.28337H20.7843V1.31254H33.1639C36.0949 1.31254 38.6595 1.91532 40.8578 3.12087C43.056 4.30699 44.7625 5.97921 45.9773 8.13754C47.2116 10.2959 47.8285 12.8139 47.8285 15.6917V15.75C47.8285 18.6472 47.2116 21.175 45.9773 23.3334C44.7625 25.4917 43.056 27.1639 40.8578 28.35C38.6595 29.5362 36.0949 30.1292 33.1639 30.1292H20.7843ZM16.3879 43.4V1.31254H25.123V43.4H16.3879ZM46.4112 43.4L60.9888 1.31254H68.6831V9.47921H66.0221L55.5802 43.4H46.4112ZM54.2497 33.1917L56.3901 26.6H75.8563L77.9962 33.1917H54.2497ZM76.637 43.4L66.1951 9.47921V1.31254H71.2571L85.8062 43.4H76.637ZM104.462 44.1292C101.165 44.1292 98.282 43.6431 95.8135 42.6709C93.3649 41.6792 91.4365 40.2695 90.0287 38.4417C88.6214 36.5945 87.8305 34.3778 87.6574 31.7917L87.6282 31.325H95.8718L95.9292 31.6459C96.1222 32.7347 96.6044 33.6778 97.3759 34.475C98.1664 35.2528 99.1882 35.8653 100.441 36.3125C101.695 36.7403 103.112 36.9542 104.694 36.9542C106.313 36.9542 107.702 36.7403 108.859 36.3125C110.035 35.8653 110.941 35.2431 111.577 34.4459C112.233 33.6292 112.561 32.6862 112.561 31.6167V31.5875C112.561 30.1681 112.002 29.0597 110.883 28.2625C109.784 27.4459 107.933 26.7653 105.33 26.2209L100.933 25.3459C96.8261 24.5097 93.731 23.1 91.6485 21.1167C89.5659 19.1334 88.5246 16.557 88.5246 13.3875V13.3584C88.5246 10.7917 89.2096 8.55558 90.5785 6.65004C91.9474 4.72504 93.8277 3.23754 96.2189 2.18754C98.6097 1.11809 101.348 0.583374 104.433 0.583374C107.653 0.583374 110.43 1.08893 112.764 2.10004C115.116 3.11115 116.948 4.54032 118.259 6.38754C119.57 8.23475 120.293 10.3834 120.428 12.8334L120.457 13.3875H112.214L112.185 13.0375C112.031 11.9292 111.616 10.9862 110.941 10.2084C110.266 9.41117 109.37 8.79867 108.251 8.37087C107.152 7.94308 105.879 7.72921 104.433 7.72921C102.948 7.72921 101.666 7.95283 100.586 8.40004C99.5066 8.82783 98.6773 9.42087 98.0988 10.1792C97.5397 10.9375 97.2602 11.8222 97.2602 12.8334V12.8625C97.2602 14.1847 97.8193 15.2542 98.9374 16.0709C100.056 16.8875 101.811 17.5389 104.202 18.025L108.627 18.9292C111.539 19.5125 113.93 20.3195 115.8 21.35C117.671 22.3806 119.05 23.6834 119.937 25.2584C120.843 26.8139 121.296 28.6903 121.296 30.8875V30.9167C121.296 33.6195 120.621 35.9625 119.271 37.9459C117.941 39.9097 116.012 41.4362 113.486 42.525C110.98 43.5945 107.971 44.1292 104.462 44.1292ZM123.118 43.4L137.696 1.31254H145.39V9.47921H142.729L132.287 43.4H123.118ZM130.957 33.1917L133.097 26.6H152.563L154.703 33.1917H130.957ZM153.344 43.4L142.902 9.47921V1.31254H147.964L162.513 43.4H153.344Z" fill="white"/>
</g>
<path d="M49.9849 65.6733V51.8278H55.5368C56.4392 51.8278 57.2173 51.986 57.8713 52.3025C58.5253 52.619 59.0222 53.0672 59.3623 53.6475C59.7154 54.2144 59.892 54.8869 59.892 55.665C59.892 56.443 59.7154 57.1286 59.3623 57.722C59.0222 58.3023 58.5253 58.7572 57.8713 59.0868C57.2173 59.4033 56.4392 59.5615 55.5368 59.5615H50.8873V65.6733H49.9849ZM50.8873 58.711H55.4975C56.6224 58.711 57.479 58.4341 58.0675 57.8802C58.6691 57.3264 58.9699 56.588 58.9699 55.665C58.9699 54.7683 58.6691 54.0497 58.0675 53.509C57.479 52.9552 56.6224 52.6783 55.4975 52.6783H50.8873V58.711ZM64.2806 65.8711C63.5744 65.8711 62.9532 65.7524 62.4169 65.515C61.8806 65.2646 61.4622 64.9217 61.1614 64.4865C60.8605 64.0382 60.7101 63.524 60.7101 62.9437C60.7101 62.047 61.0567 61.3285 61.7499 60.7878C62.4431 60.234 63.3652 59.9571 64.516 59.9571C65.6669 59.9571 66.6871 60.2406 67.5765 60.8076V59.1857C67.5765 58.289 67.3345 57.6231 66.8506 57.188C66.3667 56.7397 65.6735 56.5155 64.7711 56.5155C64.3265 56.5155 63.8621 56.588 63.3782 56.7331C62.8943 56.8782 62.3384 57.1155 61.7107 57.4451L61.3379 56.6737C61.9527 56.3572 62.5412 56.1265 63.1035 55.9814C63.6659 55.8232 64.2284 55.7441 64.7907 55.7441C65.9548 55.7441 66.8506 56.0276 67.4784 56.5946C68.1192 57.1484 68.4397 57.9594 68.4397 59.0274V65.6733H67.5765V64.5854C67.1318 64.9941 66.6348 65.3106 66.0855 65.5348C65.5362 65.759 64.9346 65.8711 64.2806 65.8711ZM61.5733 62.924C61.5733 63.5569 61.835 64.0778 62.3581 64.4865C62.8811 64.8952 63.5417 65.0997 64.3395 65.0997C65.0327 65.0997 65.6409 64.981 66.164 64.7437C66.6871 64.4932 67.1579 64.1436 67.5765 63.6954V61.6779C67.1449 61.3483 66.674 61.1043 66.164 60.946C65.6539 60.7878 65.0719 60.7087 64.418 60.7087C63.5678 60.7087 62.8811 60.9131 62.3581 61.3218C61.835 61.7306 61.5733 62.2646 61.5733 62.924ZM75.4265 65.8711C74.5375 65.8711 73.7267 65.6469 72.9941 65.1986C72.2614 64.7503 71.6794 64.1436 71.2478 63.3789C70.8292 62.6141 70.62 61.757 70.62 60.8076C70.62 59.8582 70.8292 59.001 71.2478 58.2363C71.6794 57.4715 72.2614 56.8649 72.9941 56.4166C73.7267 55.9683 74.5375 55.7441 75.4265 55.7441C76.0809 55.7441 76.7338 55.8759 77.3883 56.1397C78.055 56.4034 78.6374 56.766 79.134 57.2275L78.5454 57.9396C78.127 57.5176 77.6427 57.188 77.094 56.9506C76.5576 56.7001 76.0012 56.5748 75.4265 56.5748C74.6938 56.5748 74.0271 56.766 73.4248 57.1484C72.8363 57.5176 72.3657 58.0253 72.0129 58.6714C71.6728 59.3044 71.5028 60.0164 71.5028 60.8076C71.5028 61.5987 71.6728 62.3174 72.0129 62.9635C72.3657 63.5965 72.8363 64.1041 73.4248 64.4865C74.0271 64.8557 74.6938 65.0403 75.4265 65.0403C76.0012 65.0403 76.5576 64.915 77.094 64.6645C77.6427 64.414 78.127 64.0843 78.5454 63.6756L79.134 64.3876C78.6374 64.8492 78.055 65.2117 77.3883 65.4755C76.7338 65.7393 76.0809 65.8711 75.4265 65.8711ZM80.9563 65.6733V51.8278L81.8207 51.6102V60.4713L87.274 55.9419H88.4909L82.8016 60.6493L88.7254 65.6733H87.4119L81.8207 60.8867V65.6733H80.9563ZM92.5203 65.8711C91.8137 65.8711 91.193 65.7524 90.6565 65.515C90.1201 65.2646 89.7017 64.9217 89.4013 64.4865C89.0994 64.0382 88.9491 63.524 88.9491 62.9437C88.9491 62.047 89.2955 61.3285 89.9898 60.7878C90.6826 60.234 91.6037 59.9571 92.7548 59.9571C93.9058 59.9571 94.9265 60.2406 95.8155 60.8076V59.1857C95.8155 58.289 95.5733 57.6231 95.0905 57.188C94.6062 56.7397 93.9134 56.5155 93.0107 56.5155C92.5662 56.5155 92.1018 56.588 91.6175 56.7331C91.1332 56.8782 90.5784 57.1155 89.95 57.4451L89.5775 56.6737C90.1921 56.3572 90.7807 56.1265 91.3432 55.9814C91.9056 55.8232 92.4681 55.7441 93.0306 55.7441C94.1939 55.7441 95.0905 56.0276 95.7174 56.5946C96.358 57.1484 96.6784 57.9594 96.6784 59.0274V65.6733H95.8155V64.5854C95.371 64.9941 94.8744 65.3106 94.3242 65.5348C93.7755 65.759 93.1732 65.8711 92.5203 65.8711ZM89.812 62.924C89.812 63.5569 90.0741 64.0778 90.5968 64.4865C91.1209 64.8952 91.7815 65.0997 92.5785 65.0997C93.2713 65.0997 93.8797 64.981 94.4039 64.7437C94.9265 64.4932 95.3971 64.1436 95.8155 63.6954V61.6779C95.3848 61.3483 94.9127 61.1043 94.4039 60.946C93.8935 60.7878 93.3111 60.7087 92.6567 60.7087C91.8076 60.7087 91.1209 60.9131 90.5968 61.3218C90.0741 61.7306 89.812 62.2646 89.812 62.924ZM103.96 69.906C103.319 69.906 102.685 69.8138 102.056 69.6291C101.43 69.4445 100.853 69.1873 100.331 68.8577L100.821 68.1457C101.396 68.4753 101.92 68.7126 102.391 68.8577C102.875 69.0028 103.378 69.0753 103.902 69.0753C104.909 69.0753 105.674 68.8313 106.196 68.3435C106.72 67.8556 106.981 67.1303 106.981 66.1678V64.5063C106.104 65.4161 104.999 65.8711 103.666 65.8711C102.777 65.8711 101.966 65.6469 101.233 65.1986C100.501 64.7503 99.9184 64.1436 99.4877 63.3789C99.0693 62.6141 98.8593 61.757 98.8593 60.8076C98.8593 59.8582 99.0693 59.001 99.4877 58.2363C99.9184 57.4715 100.501 56.8649 101.233 56.4166C101.966 55.9683 102.777 55.7441 103.666 55.7441C104.28 55.7441 104.875 55.8694 105.451 56.1199C106.026 56.3572 106.536 56.6804 106.981 57.0891V55.9419H107.844V66.1282C107.844 67.3676 107.505 68.3039 106.825 68.9368C106.158 69.5829 105.203 69.906 103.96 69.906ZM103.666 65.0403C104.385 65.0403 105.033 64.8952 105.608 64.6052C106.196 64.3019 106.654 63.9063 106.981 63.4184V58.1967C106.641 57.7352 106.176 57.3529 105.588 57.0495C104.999 56.7331 104.359 56.5748 103.666 56.5748C102.933 56.5748 102.266 56.766 101.664 57.1484C101.076 57.5176 100.605 58.0253 100.253 58.6714C99.9123 59.3044 99.7422 60.0164 99.7422 60.8076C99.7422 61.5987 99.9123 62.3174 100.253 62.9635C100.605 63.5965 101.076 64.1041 101.664 64.4865C102.266 64.8557 102.933 65.0403 103.666 65.0403ZM110.518 65.6733V55.9419H111.381V65.6733H110.518ZM110.951 53.7464C110.741 53.7464 110.564 53.6739 110.42 53.5288C110.276 53.3837 110.204 53.2057 110.204 52.9948C110.204 52.7838 110.276 52.6058 110.42 52.4607C110.564 52.3156 110.741 52.2432 110.951 52.2432C111.173 52.2432 111.349 52.3156 111.479 52.4607C111.623 52.6058 111.695 52.7838 111.695 52.9948C111.695 53.2057 111.623 53.3837 111.479 53.5288C111.349 53.6739 111.173 53.7464 110.951 53.7464ZM114.043 65.6733V55.9419H114.906V57.3067C115.691 56.265 116.758 55.7441 118.105 55.7441C118.836 55.7441 119.478 55.9023 120.027 56.2188C120.589 56.5221 121.02 56.9573 121.322 57.5242C121.636 58.078 121.793 58.7241 121.793 59.4626V65.6733H120.93V59.6999C120.93 58.7241 120.661 57.9594 120.125 57.4055C119.589 56.8386 118.85 56.555 117.909 56.555C117.254 56.555 116.666 56.7133 116.143 57.0297C115.619 57.3331 115.207 57.7747 114.906 58.355V65.6733H114.043ZM129.077 69.906C128.435 69.906 127.802 69.8138 127.174 69.6291C126.545 69.4445 125.971 69.1873 125.448 68.8577L125.938 68.1457C126.513 68.4753 127.036 68.7126 127.508 68.8577C127.991 69.0028 128.495 69.0753 129.018 69.0753C130.025 69.0753 130.789 68.8313 131.313 68.3435C131.836 67.8556 132.098 67.1303 132.098 66.1678V64.5063C131.222 65.4161 130.116 65.8711 128.783 65.8711C127.893 65.8711 127.082 65.6469 126.349 65.1986C125.617 64.7503 125.036 64.1436 124.603 63.3789C124.185 62.6141 123.977 61.757 123.977 60.8076C123.977 59.8582 124.185 59.001 124.603 58.2363C125.036 57.4715 125.617 56.8649 126.349 56.4166C127.082 55.9683 127.893 55.7441 128.783 55.7441C129.398 55.7441 129.992 55.8694 130.567 56.1199C131.143 56.3572 131.654 56.6804 132.098 57.0891V55.9419H132.961V66.1282C132.961 67.3676 132.621 68.3039 131.94 68.9368C131.274 69.5829 130.319 69.906 129.077 69.906ZM128.783 65.0403C129.502 65.0403 130.149 64.8952 130.725 64.6052C131.313 64.3019 131.77 63.9063 132.098 63.4184V58.1967C131.758 57.7352 131.294 57.3529 130.705 57.0495C130.116 56.7331 129.476 56.5748 128.783 56.5748C128.05 56.5748 127.382 56.766 126.781 57.1484C126.193 57.5176 125.722 58.0253 125.368 58.6714C125.028 59.3044 124.859 60.0164 124.859 60.8076C124.859 61.5987 125.028 62.3174 125.368 62.9635C125.722 63.5965 126.193 64.1041 126.781 64.4865C127.382 64.8557 128.05 65.0403 128.783 65.0403ZM144.516 65.8908C143.417 65.8908 142.39 65.6666 141.435 65.2184C140.48 64.7568 139.644 64.0976 138.925 63.2404L139.631 62.647C140.284 63.4251 141.024 64.0185 141.847 64.4272C142.684 64.8359 143.575 65.0403 144.516 65.0403C145.301 65.0403 146.001 64.9019 146.616 64.625C147.23 64.3481 147.713 63.9723 148.067 63.4976C148.42 63.0097 148.596 62.4624 148.596 61.8559C148.596 61.0516 148.321 60.4384 147.773 60.0164C147.236 59.5813 146.327 59.2582 145.046 59.0472L143.379 58.7703C142.005 58.5461 140.998 58.1572 140.356 57.6033C139.716 57.0495 139.395 56.2913 139.395 55.3287C139.395 54.5903 139.585 53.9442 139.964 53.3904C140.356 52.8365 140.9 52.4014 141.593 52.0849C142.286 51.7685 143.077 51.6102 143.967 51.6102C144.868 51.6102 145.771 51.7685 146.674 52.0849C147.577 52.3883 148.433 52.8432 149.244 53.4497L148.694 54.2013C147.151 53.041 145.575 52.4607 143.967 52.4607C143.261 52.4607 142.632 52.5794 142.084 52.8168C141.533 53.0541 141.103 53.3904 140.788 53.8255C140.474 54.2475 140.318 54.7353 140.318 55.2892C140.318 56.0144 140.56 56.5815 141.043 56.9902C141.527 57.3858 142.338 57.6758 143.477 57.8605L145.144 58.1374C146.7 58.3879 147.819 58.8099 148.498 59.4033C149.178 59.9835 149.518 60.8207 149.518 61.9152C149.518 62.68 149.302 63.3657 148.872 63.9723C148.439 64.5656 147.845 65.0337 147.086 65.3766C146.34 65.7195 145.483 65.8908 144.516 65.8908ZM150.187 65.6733L155.916 51.8278H157.033L162.742 65.6733H161.761L159.858 60.9856H153.051L151.128 65.6733H150.187ZM153.384 60.1746H159.525L156.465 52.6783L153.384 60.1746Z" fill="white"/>
</g>
<defs>
<clipPath id="clip0_264_303">
<rect width="163" height="70" fill="white"/>
</clipPath>
<clipPath id="clip1_264_303">
<rect width="162.438" height="43.8667" fill="white" transform="translate(0.450684 0.466675)"/>
</clipPath>
</defs>
</svg>
