<svg width="163" height="70" viewBox="0 0 163 70" fill="none" xmlns="http://www.w3.org/2000/svg">
<g clip-path="url(#clip0_264_331)">
<g clip-path="url(#clip1_264_331)">
<path d="M0.710938 43.4002V1.31266H9.44605V43.4002H0.710938ZM20.7843 30.1293V23.246H31.0235C33.5303 23.246 35.4778 22.6043 36.8662 21.321C38.2739 20.0182 38.9777 18.171 38.9777 15.7793V15.721C38.9777 13.3293 38.2739 11.4918 36.8662 10.2085C35.4778 8.92516 33.5303 8.2835 31.0235 8.2835H20.7843V1.31266H33.1639C36.0949 1.31266 38.6595 1.91544 40.8578 3.121C43.056 4.30711 44.7625 5.97933 45.9773 8.13766C47.2116 10.296 47.8285 12.814 47.8285 15.6918V15.7502C47.8285 18.6474 47.2116 21.1752 45.9773 23.3335C44.7625 25.4918 43.056 27.164 40.8578 28.3502C38.6595 29.5363 36.0949 30.1293 33.1639 30.1293H20.7843ZM16.3879 43.4002V1.31266H25.123V43.4002H16.3879ZM46.4112 43.4002L60.9888 1.31266H68.6831V9.47933H66.0221L55.5802 43.4002H46.4112ZM54.2497 33.1918L56.3901 26.6002H75.8563L77.9962 33.1918H54.2497ZM76.637 43.4002L66.1951 9.47933V1.31266H71.2571L85.8062 43.4002H76.637ZM104.462 44.1293C101.165 44.1293 98.282 43.6432 95.8135 42.671C93.3649 41.6793 91.4365 40.2696 90.0287 38.4418C88.6214 36.5946 87.8305 34.378 87.6574 31.7918L87.6282 31.3252H95.8718L95.9292 31.646C96.1222 32.7349 96.6044 33.678 97.3759 34.4752C98.1664 35.253 99.1882 35.8655 100.441 36.3127C101.695 36.7405 103.112 36.9543 104.694 36.9543C106.313 36.9543 107.702 36.7405 108.859 36.3127C110.035 35.8655 110.941 35.2432 111.577 34.446C112.233 33.6293 112.561 32.6863 112.561 31.6168V31.5877C112.561 30.1682 112.002 29.0599 110.883 28.2627C109.784 27.446 107.933 26.7655 105.33 26.221L100.933 25.346C96.8261 24.5099 93.731 23.1002 91.6485 21.1168C89.5659 19.1335 88.5246 16.5571 88.5246 13.3877V13.3585C88.5246 10.7918 89.2096 8.5557 90.5785 6.65016C91.9474 4.72516 93.8277 3.23766 96.2189 2.18766C98.6097 1.11822 101.348 0.583496 104.433 0.583496C107.653 0.583496 110.43 1.08905 112.764 2.10016C115.116 3.11128 116.948 4.54044 118.259 6.38766C119.57 8.23487 120.293 10.3835 120.428 12.8335L120.457 13.3877H112.214L112.185 13.0377C112.031 11.9293 111.616 10.9863 110.941 10.2085C110.266 9.41129 109.37 8.79879 108.251 8.371C107.152 7.9432 105.879 7.72933 104.433 7.72933C102.948 7.72933 101.666 7.95296 100.586 8.40016C99.5066 8.82796 98.6773 9.421 98.0988 10.1793C97.5397 10.9377 97.2602 11.8224 97.2602 12.8335V12.8627C97.2602 14.1849 97.8193 15.2543 98.9374 16.071C100.056 16.8877 101.811 17.539 104.202 18.0252L108.627 18.9293C111.539 19.5127 113.93 20.3196 115.8 21.3502C117.671 22.3807 119.05 23.6835 119.937 25.2585C120.843 26.814 121.296 28.6905 121.296 30.8877V30.9168C121.296 33.6196 120.621 35.9627 119.271 37.946C117.941 39.9099 116.012 41.4363 113.486 42.5252C110.98 43.5946 107.971 44.1293 104.462 44.1293ZM123.118 43.4002L137.696 1.31266H145.39V9.47933H142.729L132.287 43.4002H123.118ZM130.957 33.1918L133.097 26.6002H152.563L154.703 33.1918H130.957ZM153.344 43.4002L142.902 9.47933V1.31266H147.964L162.513 43.4002H153.344Z" fill="black"/>
</g>
<path d="M49.9849 65.6734V51.8279H55.5368C56.4392 51.8279 57.2173 51.9862 57.8713 52.3026C58.5253 52.6191 59.0222 53.0674 59.3623 53.6476C59.7154 54.2146 59.892 54.8871 59.892 55.6651C59.892 56.4431 59.7154 57.1288 59.3623 57.7221C59.0222 58.3024 58.5253 58.7573 57.8713 59.0869C57.2173 59.4034 56.4392 59.5616 55.5368 59.5616H50.8873V65.6734H49.9849ZM50.8873 58.7111H55.4975C56.6224 58.7111 57.479 58.4342 58.0675 57.8804C58.6691 57.3266 58.9699 56.5881 58.9699 55.6651C58.9699 54.7684 58.6691 54.0498 58.0675 53.5092C57.479 52.9553 56.6224 52.6784 55.4975 52.6784H50.8873V58.7111ZM64.2806 65.8712C63.5744 65.8712 62.9532 65.7525 62.4169 65.5152C61.8806 65.2647 61.4622 64.9218 61.1614 64.4866C60.8605 64.0384 60.7101 63.5241 60.7101 62.9439C60.7101 62.0471 61.0567 61.3286 61.7499 60.7879C62.4431 60.2341 63.3652 59.9572 64.516 59.9572C65.6669 59.9572 66.6871 60.2407 67.5765 60.8077V59.1858C67.5765 58.2891 67.3345 57.6232 66.8506 57.1881C66.3667 56.7398 65.6735 56.5156 64.7711 56.5156C64.3265 56.5156 63.8621 56.5881 63.3782 56.7332C62.8943 56.8783 62.3384 57.1156 61.7107 57.4452L61.3379 56.6738C61.9527 56.3574 62.5412 56.1267 63.1035 55.9816C63.6659 55.8233 64.2284 55.7442 64.7907 55.7442C65.9548 55.7442 66.8506 56.0278 67.4784 56.5947C68.1192 57.1485 68.4397 57.9595 68.4397 59.0276V65.6734H67.5765V64.5855C67.1318 64.9943 66.6348 65.3107 66.0855 65.5349C65.5362 65.7592 64.9346 65.8712 64.2806 65.8712ZM61.5733 62.9241C61.5733 63.557 61.835 64.0779 62.3581 64.4866C62.8811 64.8954 63.5417 65.0998 64.3395 65.0998C65.0327 65.0998 65.6409 64.9811 66.164 64.7438C66.6871 64.4933 67.1579 64.1438 67.5765 63.6955V61.678C67.1449 61.3484 66.674 61.1044 66.164 60.9462C65.6539 60.7879 65.0719 60.7088 64.418 60.7088C63.5678 60.7088 62.8811 60.9132 62.3581 61.322C61.835 61.7307 61.5733 62.2647 61.5733 62.9241ZM75.4265 65.8712C74.5375 65.8712 73.7267 65.647 72.9941 65.1987C72.2614 64.7504 71.6794 64.1438 71.2478 63.379C70.8292 62.6143 70.62 61.7571 70.62 60.8077C70.62 59.8583 70.8292 59.0011 71.2478 58.2364C71.6794 57.4717 72.2614 56.865 72.9941 56.4167C73.7267 55.9684 74.5375 55.7442 75.4265 55.7442C76.0809 55.7442 76.7338 55.876 77.3883 56.1398C78.055 56.4036 78.6374 56.7661 79.134 57.2277L78.5454 57.9397C78.127 57.5177 77.6427 57.1881 77.094 56.9507C76.5576 56.7003 76.0012 56.5749 75.4265 56.5749C74.6938 56.5749 74.0271 56.7661 73.4248 57.1485C72.8363 57.5177 72.3657 58.0255 72.0129 58.6715C71.6728 59.3045 71.5028 60.0165 71.5028 60.8077C71.5028 61.5989 71.6728 62.3176 72.0129 62.9636C72.3657 63.5966 72.8363 64.1042 73.4248 64.4866C74.0271 64.8558 74.6938 65.0405 75.4265 65.0405C76.0012 65.0405 76.5576 64.9151 77.094 64.6647C77.6427 64.4142 78.127 64.0844 78.5454 63.6757L79.134 64.3877C78.6374 64.8493 78.055 65.2118 77.3883 65.4756C76.7338 65.7394 76.0809 65.8712 75.4265 65.8712ZM80.9563 65.6734V51.8279L81.8207 51.6104V60.4715L87.274 55.942H88.4909L82.8016 60.6495L88.7254 65.6734H87.4119L81.8207 60.8868V65.6734H80.9563ZM92.5203 65.8712C91.8137 65.8712 91.193 65.7525 90.6565 65.5152C90.1201 65.2647 89.7017 64.9218 89.4013 64.4866C89.0994 64.0384 88.9491 63.5241 88.9491 62.9439C88.9491 62.0471 89.2955 61.3286 89.9898 60.7879C90.6826 60.2341 91.6037 59.9572 92.7548 59.9572C93.9058 59.9572 94.9265 60.2407 95.8155 60.8077V59.1858C95.8155 58.2891 95.5733 57.6232 95.0905 57.1881C94.6062 56.7398 93.9134 56.5156 93.0107 56.5156C92.5662 56.5156 92.1018 56.5881 91.6175 56.7332C91.1332 56.8783 90.5784 57.1156 89.95 57.4452L89.5775 56.6738C90.1921 56.3574 90.7807 56.1267 91.3432 55.9816C91.9056 55.8233 92.4681 55.7442 93.0306 55.7442C94.1939 55.7442 95.0905 56.0278 95.7174 56.5947C96.358 57.1485 96.6784 57.9595 96.6784 59.0276V65.6734H95.8155V64.5855C95.371 64.9943 94.8744 65.3107 94.3242 65.5349C93.7755 65.7592 93.1732 65.8712 92.5203 65.8712ZM89.812 62.9241C89.812 63.557 90.0741 64.0779 90.5968 64.4866C91.1209 64.8954 91.7815 65.0998 92.5785 65.0998C93.2713 65.0998 93.8797 64.9811 94.4039 64.7438C94.9265 64.4933 95.3971 64.1438 95.8155 63.6955V61.678C95.3848 61.3484 94.9127 61.1044 94.4039 60.9462C93.8935 60.7879 93.3111 60.7088 92.6567 60.7088C91.8076 60.7088 91.1209 60.9132 90.5968 61.322C90.0741 61.7307 89.812 62.2647 89.812 62.9241ZM103.96 69.9062C103.319 69.9062 102.685 69.8139 102.056 69.6292C101.43 69.4446 100.853 69.1875 100.331 68.8579L100.821 68.1458C101.396 68.4754 101.92 68.7128 102.391 68.8579C102.875 69.003 103.378 69.0754 103.902 69.0754C104.909 69.0754 105.674 68.8314 106.196 68.3436C106.72 67.8558 106.981 67.1304 106.981 66.1679V64.5064C106.104 65.4163 104.999 65.8712 103.666 65.8712C102.777 65.8712 101.966 65.647 101.233 65.1987C100.501 64.7504 99.9184 64.1438 99.4877 63.379C99.0693 62.6143 98.8593 61.7571 98.8593 60.8077C98.8593 59.8583 99.0693 59.0011 99.4877 58.2364C99.9184 57.4717 100.501 56.865 101.233 56.4167C101.966 55.9684 102.777 55.7442 103.666 55.7442C104.28 55.7442 104.875 55.8695 105.451 56.12C106.026 56.3574 106.536 56.6805 106.981 57.0892V55.942H107.844V66.1283C107.844 67.3678 107.505 68.304 106.825 68.937C106.158 69.583 105.203 69.9062 103.96 69.9062ZM103.666 65.0405C104.385 65.0405 105.033 64.8954 105.608 64.6053C106.196 64.302 106.654 63.9064 106.981 63.4186V58.1968C106.641 57.7353 106.176 57.353 105.588 57.0496C104.999 56.7332 104.359 56.5749 103.666 56.5749C102.933 56.5749 102.266 56.7661 101.664 57.1485C101.076 57.5177 100.605 58.0255 100.253 58.6715C99.9123 59.3045 99.7422 60.0165 99.7422 60.8077C99.7422 61.5989 99.9123 62.3176 100.253 62.9636C100.605 63.5966 101.076 64.1042 101.664 64.4866C102.266 64.8558 102.933 65.0405 103.666 65.0405ZM110.518 65.6734V55.942H111.381V65.6734H110.518ZM110.951 53.7465C110.741 53.7465 110.564 53.674 110.42 53.5289C110.276 53.3838 110.204 53.2058 110.204 52.9949C110.204 52.784 110.276 52.606 110.42 52.4609C110.564 52.3158 110.741 52.2433 110.951 52.2433C111.173 52.2433 111.349 52.3158 111.479 52.4609C111.623 52.606 111.695 52.784 111.695 52.9949C111.695 53.2058 111.623 53.3838 111.479 53.5289C111.349 53.674 111.173 53.7465 110.951 53.7465ZM114.043 65.6734V55.942H114.906V57.3068C115.691 56.2651 116.758 55.7442 118.105 55.7442C118.836 55.7442 119.478 55.9024 120.027 56.2189C120.589 56.5223 121.02 56.9574 121.322 57.5243C121.636 58.0782 121.793 58.7242 121.793 59.4627V65.6734H120.93V59.7001C120.93 58.7242 120.661 57.9595 120.125 57.4057C119.589 56.8387 118.85 56.5552 117.909 56.5552C117.254 56.5552 116.666 56.7134 116.143 57.0299C115.619 57.3332 115.207 57.7748 114.906 58.3551V65.6734H114.043ZM129.077 69.9062C128.435 69.9062 127.802 69.8139 127.174 69.6292C126.545 69.4446 125.971 69.1875 125.448 68.8579L125.938 68.1458C126.513 68.4754 127.036 68.7128 127.508 68.8579C127.991 69.003 128.495 69.0754 129.018 69.0754C130.025 69.0754 130.789 68.8314 131.313 68.3436C131.836 67.8558 132.098 67.1304 132.098 66.1679V64.5064C131.222 65.4163 130.116 65.8712 128.783 65.8712C127.893 65.8712 127.082 65.647 126.349 65.1987C125.617 64.7504 125.036 64.1438 124.603 63.379C124.185 62.6143 123.977 61.7571 123.977 60.8077C123.977 59.8583 124.185 59.0011 124.603 58.2364C125.036 57.4717 125.617 56.865 126.349 56.4167C127.082 55.9684 127.893 55.7442 128.783 55.7442C129.398 55.7442 129.992 55.8695 130.567 56.12C131.143 56.3574 131.654 56.6805 132.098 57.0892V55.942H132.961V66.1283C132.961 67.3678 132.621 68.304 131.94 68.937C131.274 69.583 130.319 69.9062 129.077 69.9062ZM128.783 65.0405C129.502 65.0405 130.149 64.8954 130.725 64.6053C131.313 64.302 131.77 63.9064 132.098 63.4186V58.1968C131.758 57.7353 131.294 57.353 130.705 57.0496C130.116 56.7332 129.476 56.5749 128.783 56.5749C128.05 56.5749 127.382 56.7661 126.781 57.1485C126.193 57.5177 125.722 58.0255 125.368 58.6715C125.028 59.3045 124.859 60.0165 124.859 60.8077C124.859 61.5989 125.028 62.3176 125.368 62.9636C125.722 63.5966 126.193 64.1042 126.781 64.4866C127.382 64.8558 128.05 65.0405 128.783 65.0405ZM144.516 65.891C143.417 65.891 142.39 65.6668 141.435 65.2185C140.48 64.7569 139.644 64.0977 138.925 63.2406L139.631 62.6472C140.284 63.4252 141.024 64.0186 141.847 64.4273C142.684 64.836 143.575 65.0405 144.516 65.0405C145.301 65.0405 146.001 64.902 146.616 64.6251C147.23 64.3482 147.713 63.9724 148.067 63.4977C148.42 63.0098 148.596 62.4625 148.596 61.856C148.596 61.0517 148.321 60.4385 147.773 60.0165C147.236 59.5814 146.327 59.2583 145.046 59.0473L143.379 58.7704C142.005 58.5462 140.998 58.1573 140.356 57.6035C139.716 57.0496 139.395 56.2914 139.395 55.3288C139.395 54.5904 139.585 53.9443 139.964 53.3905C140.356 52.8367 140.9 52.4015 141.593 52.0851C142.286 51.7686 143.077 51.6104 143.967 51.6104C144.868 51.6104 145.771 51.7686 146.674 52.0851C147.577 52.3884 148.433 52.8433 149.244 53.4498L148.694 54.2014C147.151 53.0411 145.575 52.4609 143.967 52.4609C143.261 52.4609 142.632 52.5795 142.084 52.8169C141.533 53.0542 141.103 53.3905 140.788 53.8256C140.474 54.2476 140.318 54.7355 140.318 55.2893C140.318 56.0145 140.56 56.5816 141.043 56.9903C141.527 57.3859 142.338 57.6759 143.477 57.8606L145.144 58.1375C146.7 58.388 147.819 58.81 148.498 59.4034C149.178 59.9836 149.518 60.8208 149.518 61.9153C149.518 62.6801 149.302 63.3659 148.872 63.9724C148.439 64.5658 147.845 65.0338 147.086 65.3767C146.34 65.7196 145.483 65.891 144.516 65.891ZM150.187 65.6734L155.916 51.8279H157.033L162.742 65.6734H161.761L159.858 60.9857H153.051L151.128 65.6734H150.187ZM153.384 60.1748H159.525L156.465 52.6784L153.384 60.1748Z" fill="black"/>
</g>
<defs>
<clipPath id="clip0_264_331">
<rect width="163" height="70" fill="white"/>
</clipPath>
<clipPath id="clip1_264_331">
<rect width="162.438" height="43.8667" fill="white" transform="translate(0.450684 0.466797)"/>
</clipPath>
</defs>
</svg>
