<svg width="114" height="32" viewBox="0 0 114 32" fill="none" xmlns="http://www.w3.org/2000/svg">
<g clip-path="url(#clip0_29_859)">
<g clip-path="url(#clip1_29_859)">
<path d="M38.4282 19.8401V0.600057H42.4549V19.8401H38.4282ZM47.6816 13.7734V10.6267H52.4016C53.5571 10.6267 54.4549 10.3334 55.0949 9.74672C55.7438 9.15116 56.0682 8.30672 56.0682 7.21339V7.18672C56.0682 6.09339 55.7438 5.25339 55.0949 4.66672C54.4549 4.08006 53.5571 3.78672 52.4016 3.78672H47.6816V0.600057H53.3882C54.7393 0.600057 55.9216 0.875613 56.9349 1.42672C57.9482 1.96895 58.7349 2.73339 59.2949 3.72006C59.8639 4.70672 60.1482 5.85783 60.1482 7.17339V7.20006C60.1482 8.52449 59.8639 9.68006 59.2949 10.6667C58.7349 11.6534 57.9482 12.4178 56.9349 12.9601C55.9216 13.5023 54.7393 13.7734 53.3882 13.7734H47.6816ZM45.6549 19.8401V0.600057H49.6816V19.8401H45.6549ZM59.4949 19.8401L66.2148 0.600057H69.7617V4.33339H68.535L63.7216 19.8401H59.4949ZM63.1082 15.1734L64.0949 12.1601H73.0683L74.0548 15.1734H63.1082ZM73.4282 19.8401L68.6148 4.33339V0.600057H70.9482L77.655 19.8401H73.4282ZM86.2549 20.1734C84.7349 20.1734 83.406 19.9512 82.2681 19.5067C81.1394 19.0534 80.2504 18.409 79.6015 17.5734C78.9527 16.729 78.5881 15.7156 78.5083 14.5334L78.4949 14.3201H82.295L82.3215 14.4667C82.4104 14.9645 82.6327 15.3956 82.9883 15.7601C83.3527 16.1156 83.8237 16.3956 84.4015 16.6001C84.9794 16.7956 85.6326 16.8934 86.3616 16.8934C87.1082 16.8934 87.7482 16.7956 88.2816 16.6001C88.8239 16.3956 89.2416 16.1112 89.5349 15.7467C89.8372 15.3734 89.9882 14.9423 89.9882 14.4534V14.4401C89.9882 13.7912 89.7305 13.2845 89.2149 12.9201C88.7082 12.5467 87.8549 12.2356 86.6549 11.9867L84.6282 11.5867C82.7349 11.2045 81.3081 10.5601 80.3481 9.65339C79.3881 8.74672 78.9081 7.56895 78.9081 6.12006V6.10672C78.9081 4.93339 79.2239 3.91116 79.8549 3.04006C80.4859 2.16006 81.3527 1.48006 82.455 1.00006C83.5571 0.511167 84.8194 0.266724 86.2417 0.266724C87.726 0.266724 89.006 0.497834 90.0817 0.960057C91.166 1.42228 92.0104 2.07561 92.6148 2.92006C93.2194 3.76449 93.5526 4.74672 93.6149 5.86672L93.6281 6.12006H89.8282L89.815 5.96006C89.7437 5.45339 89.5526 5.02229 89.2416 4.66672C88.9305 4.30229 88.5171 4.02229 88.0017 3.82672C87.4948 3.63116 86.9081 3.53339 86.2417 3.53339C85.5571 3.53339 84.9659 3.63562 84.4682 3.84006C83.9705 4.03562 83.5882 4.30672 83.3216 4.65339C83.0639 5.00006 82.935 5.40449 82.935 5.86672V5.88006C82.935 6.48449 83.1927 6.97339 83.7081 7.34672C84.2237 7.72006 85.0327 8.01783 86.135 8.24006L88.1749 8.65339C89.5172 8.92006 90.6193 9.28895 91.4816 9.76006C92.3439 10.2312 92.9794 10.8267 93.3883 11.5467C93.806 12.2578 94.0149 13.1156 94.0149 14.1201V14.1334C94.0149 15.369 93.7039 16.4401 93.0816 17.3467C92.4682 18.2445 91.5793 18.9423 90.4149 19.4401C89.2593 19.929 87.8726 20.1734 86.2549 20.1734ZM94.8548 19.8401L101.575 0.600057H105.122V4.33339H103.895L99.0816 19.8401H94.8548ZM98.4682 15.1734L99.4549 12.1601H108.428L109.415 15.1734H98.4682ZM108.788 19.8401L103.975 4.33339V0.600057H106.308L113.015 19.8401H108.788Z" fill="black"/>
</g>
<path d="M61.1421 30.0221V23.6927H63.7014C64.1174 23.6927 64.4761 23.7651 64.7776 23.9097C65.079 24.0544 65.3081 24.2593 65.4649 24.5246C65.6276 24.7838 65.709 25.0912 65.709 25.4469C65.709 25.8025 65.6276 26.116 65.4649 26.3872C65.3081 26.6525 65.079 26.8604 64.7776 27.0111C64.4761 27.1558 64.1174 27.2281 63.7014 27.2281H61.5581V30.0221H61.1421ZM61.5581 26.8393H63.6833C64.2018 26.8393 64.5967 26.7127 64.868 26.4596C65.1453 26.2064 65.284 25.8688 65.284 25.4469C65.284 25.0369 65.1453 24.7085 64.868 24.4613C64.5967 24.2081 64.2018 24.0815 63.6833 24.0815H61.5581V26.8393ZM67.7321 30.1125C67.4065 30.1125 67.1202 30.0583 66.8729 29.9497C66.6257 29.8352 66.4329 29.6785 66.2942 29.4796C66.1555 29.2746 66.0862 29.0395 66.0862 28.7743C66.0862 28.3644 66.2459 28.0359 66.5655 27.7887C66.885 27.5355 67.3101 27.409 67.8406 27.409C68.3711 27.409 68.8414 27.5386 69.2514 27.7978V27.0563C69.2514 26.6464 69.1398 26.342 68.9168 26.1431C68.6937 25.9382 68.3742 25.8357 67.9582 25.8357C67.7532 25.8357 67.5391 25.8688 67.3161 25.9351C67.093 26.0015 66.8368 26.11 66.5474 26.2606L66.3756 25.908C66.6589 25.7633 66.9302 25.6579 67.1895 25.5915C67.4487 25.5192 67.708 25.483 67.9672 25.483C68.5038 25.483 68.9168 25.6127 69.2062 25.8718C69.5016 26.125 69.6493 26.4957 69.6493 26.984V30.0221H69.2514V29.5248C69.0464 29.7116 68.8173 29.8563 68.5641 29.9588C68.3109 30.0613 68.0335 30.1125 67.7321 30.1125ZM66.4841 28.7653C66.4841 29.0546 66.6047 29.2927 66.8458 29.4796C67.087 29.6664 67.3915 29.7599 67.7592 29.7599C68.0788 29.7599 68.3591 29.7056 68.6002 29.5971C68.8414 29.4826 69.0584 29.3228 69.2514 29.1179V28.1956C69.0524 28.0449 68.8354 27.9334 68.6002 27.8611C68.3651 27.7887 68.0968 27.7526 67.7954 27.7526C67.4035 27.7526 67.087 27.846 66.8458 28.0329C66.6047 28.2197 66.4841 28.4638 66.4841 28.7653ZM72.87 30.1125C72.4602 30.1125 72.0865 30.01 71.7488 29.8051C71.411 29.6001 71.1427 29.3228 70.9438 28.9732C70.7508 28.6236 70.6544 28.2318 70.6544 27.7978C70.6544 27.3638 70.7508 26.9719 70.9438 26.6223C71.1427 26.2727 71.411 25.9954 71.7488 25.7905C72.0865 25.5855 72.4602 25.483 72.87 25.483C73.1717 25.483 73.4727 25.5433 73.7744 25.6639C74.0817 25.7844 74.3502 25.9502 74.5791 26.1612L74.3078 26.4867C74.1149 26.2938 73.8916 26.1431 73.6387 26.0346C73.3914 25.9201 73.135 25.8628 72.87 25.8628C72.5323 25.8628 72.225 25.9502 71.9473 26.125C71.676 26.2938 71.4591 26.5259 71.2965 26.8212C71.1397 27.1106 71.0613 27.4361 71.0613 27.7978C71.0613 28.1594 71.1397 28.488 71.2965 28.7833C71.4591 29.0727 71.676 29.3047 71.9473 29.4796C72.225 29.6483 72.5323 29.7327 72.87 29.7327C73.135 29.7327 73.3914 29.6754 73.6387 29.5609C73.8916 29.4464 74.1149 29.2957 74.3078 29.1088L74.5791 29.4344C74.3502 29.6454 74.0817 29.8111 73.7744 29.9317C73.4727 30.0522 73.1717 30.1125 72.87 30.1125ZM75.4191 30.0221V23.6927L75.8176 23.5933V27.6441L78.3314 25.5734H78.8924L76.2698 27.7254L79.0005 30.0221H78.395L75.8176 27.8339V30.0221H75.4191ZM80.7498 30.1125C80.4241 30.1125 80.138 30.0583 79.8907 29.9497C79.6434 29.8352 79.4505 29.6785 79.3121 29.4796C79.1729 29.2746 79.1036 29.0395 79.1036 28.7743C79.1036 28.3644 79.2633 28.0359 79.5834 27.7887C79.9027 27.5355 80.3273 27.409 80.8579 27.409C81.3885 27.409 81.8591 27.5386 82.2688 27.7978V27.0563C82.2688 26.6464 82.1572 26.342 81.9347 26.1431C81.7114 25.9382 81.3921 25.8357 80.9759 25.8357C80.771 25.8357 80.5569 25.8688 80.3337 25.9351C80.1104 26.0015 79.8547 26.11 79.565 26.2606L79.3933 25.908C79.6766 25.7633 79.9479 25.6579 80.2072 25.5915C80.4665 25.5192 80.7258 25.483 80.9851 25.483C81.5213 25.483 81.9347 25.6127 82.2236 25.8718C82.5189 26.125 82.6666 26.4957 82.6666 26.984V30.0221H82.2688V29.5248C82.064 29.7116 81.835 29.8563 81.5814 29.9588C81.3285 30.0613 81.0508 30.1125 80.7498 30.1125ZM79.5014 28.7653C79.5014 29.0546 79.6222 29.2927 79.8631 29.4796C80.1048 29.6664 80.4093 29.7599 80.7767 29.7599C81.096 29.7599 81.3765 29.7056 81.6181 29.5971C81.8591 29.4826 82.076 29.3228 82.2688 29.1179V28.1956C82.0703 28.0449 81.8527 27.9334 81.6181 27.8611C81.3829 27.7887 81.1144 27.7526 80.8127 27.7526C80.4213 27.7526 80.1048 27.846 79.8631 28.0329C79.6222 28.2197 79.5014 28.4638 79.5014 28.7653ZM86.0233 31.9571C85.728 31.9571 85.4355 31.9149 85.1458 31.8305C84.8568 31.7461 84.5912 31.6285 84.3502 31.4778L84.5763 31.1523C84.8413 31.303 85.0829 31.4115 85.2998 31.4778C85.5231 31.5442 85.7548 31.5773 85.9964 31.5773C86.4606 31.5773 86.8132 31.4658 87.0541 31.2427C87.2957 31.0197 87.4158 30.6881 87.4158 30.2481V29.4886C87.0117 29.9045 86.5023 30.1125 85.8876 30.1125C85.4779 30.1125 85.1041 30.01 84.7664 29.8051C84.4287 29.6001 84.1602 29.3228 83.9617 28.9732C83.7688 28.6236 83.672 28.2318 83.672 27.7978C83.672 27.3638 83.7688 26.9719 83.9617 26.6223C84.1602 26.2727 84.4287 25.9954 84.7664 25.7905C85.1041 25.5855 85.4779 25.483 85.8876 25.483C86.1709 25.483 86.4451 25.5403 86.7107 25.6548C86.9757 25.7633 87.2109 25.911 87.4158 26.0979V25.5734H87.8136V30.23C87.8136 30.7967 87.6575 31.2247 87.3438 31.514C87.0364 31.8093 86.5963 31.9571 86.0233 31.9571ZM85.8876 29.7327C86.219 29.7327 86.5179 29.6664 86.7828 29.5338C87.0541 29.3952 87.2653 29.2143 87.4158 28.9913V26.6042C87.259 26.3932 87.0449 26.2185 86.7736 26.0798C86.5023 25.9351 86.207 25.8628 85.8876 25.8628C85.5499 25.8628 85.2426 25.9502 84.9649 26.125C84.6936 26.2938 84.4767 26.5259 84.3142 26.8212C84.1574 27.1106 84.0789 27.4361 84.0789 27.7978C84.0789 28.1594 84.1574 28.488 84.3142 28.7833C84.4767 29.0727 84.6936 29.3047 84.9649 29.4796C85.2426 29.6483 85.5499 29.7327 85.8876 29.7327ZM89.0465 30.0221V25.5734H89.4442V30.0221H89.0465ZM89.2457 24.5698C89.1489 24.5698 89.0677 24.5367 89.0013 24.4703C88.9348 24.404 88.9016 24.3226 88.9016 24.2262C88.9016 24.1298 88.9348 24.0484 89.0013 23.9821C89.0677 23.9157 89.1489 23.8826 89.2457 23.8826C89.3482 23.8826 89.4294 23.9157 89.4895 23.9821C89.5559 24.0484 89.5891 24.1298 89.5891 24.2262C89.5891 24.3226 89.5559 24.404 89.4895 24.4703C89.4294 24.5367 89.3482 24.5698 89.2457 24.5698ZM90.6715 30.0221V25.5734H91.0692V26.1973C91.431 25.7212 91.9227 25.483 92.5437 25.483C92.8808 25.483 93.1768 25.5554 93.4297 25.7C93.689 25.8387 93.8875 26.0376 94.0267 26.2968C94.1716 26.55 94.2436 26.8453 94.2436 27.1829V30.0221H93.8459V27.2914C93.8459 26.8453 93.7222 26.4957 93.4749 26.2426C93.2277 25.9834 92.8871 25.8537 92.4533 25.8537C92.1516 25.8537 91.8803 25.9261 91.6394 26.0708C91.3978 26.2094 91.2077 26.4113 91.0692 26.6766V30.0221H90.6715ZM97.6017 31.9571C97.3057 31.9571 97.0139 31.9149 96.7242 31.8305C96.4345 31.7461 96.1696 31.6285 95.9287 31.4778L96.1548 31.1523C96.4197 31.303 96.6606 31.4115 96.8782 31.4778C97.1008 31.5442 97.3332 31.5773 97.5742 31.5773C98.0383 31.5773 98.3909 31.4658 98.6325 31.2427C98.8735 31.0197 98.9943 30.6881 98.9943 30.2481V29.4886C98.5901 29.9045 98.0807 30.1125 97.4661 30.1125C97.0556 30.1125 96.6818 30.01 96.3441 29.8051C96.0064 29.6001 95.7386 29.3228 95.5394 28.9732C95.3465 28.6236 95.2504 28.2318 95.2504 27.7978C95.2504 27.3638 95.3465 26.9719 95.5394 26.6223C95.7386 26.2727 96.0064 25.9954 96.3441 25.7905C96.6818 25.5855 97.0556 25.483 97.4661 25.483C97.7494 25.483 98.0235 25.5403 98.2885 25.6548C98.5541 25.7633 98.7894 25.911 98.9943 26.0979V25.5734H99.392V30.23C99.392 30.7967 99.2352 31.2247 98.9215 31.514C98.6142 31.8093 98.174 31.9571 97.6017 31.9571ZM97.4661 29.7327C97.7974 29.7327 98.0956 29.6664 98.3612 29.5338C98.6325 29.3952 98.8431 29.2143 98.9943 28.9913V26.6042C98.8374 26.3932 98.6233 26.2185 98.352 26.0798C98.0807 25.9351 97.7854 25.8628 97.4661 25.8628C97.1283 25.8628 96.8203 25.9502 96.5433 26.125C96.272 26.2938 96.0551 26.5259 95.8919 26.8212C95.7351 27.1106 95.6574 27.4361 95.6574 27.7978C95.6574 28.1594 95.7351 28.488 95.8919 28.7833C96.0551 29.0727 96.272 29.3047 96.5433 29.4796C96.8203 29.6483 97.1283 29.7327 97.4661 29.7327ZM104.718 30.1215C104.212 30.1215 103.739 30.019 103.298 29.8141C102.858 29.6031 102.472 29.3018 102.141 28.9099L102.467 28.6387C102.768 28.9943 103.109 29.2656 103.488 29.4524C103.874 29.6393 104.285 29.7327 104.718 29.7327C105.08 29.7327 105.403 29.6694 105.686 29.5429C105.97 29.4163 106.192 29.2445 106.355 29.0275C106.518 28.8045 106.599 28.5542 106.599 28.277C106.599 27.9093 106.473 27.629 106.22 27.4361C105.973 27.2372 105.554 27.0895 104.963 26.993L104.194 26.8664C103.561 26.7639 103.097 26.5861 102.801 26.333C102.506 26.0798 102.358 25.7332 102.358 25.2931C102.358 24.9556 102.446 24.6602 102.62 24.407C102.801 24.1539 103.052 23.9549 103.371 23.8103C103.69 23.6656 104.055 23.5933 104.466 23.5933C104.881 23.5933 105.297 23.6656 105.713 23.8103C106.129 23.9489 106.524 24.1569 106.898 24.4342L106.644 24.7778C105.933 24.2473 105.207 23.9821 104.466 23.9821C104.14 23.9821 103.85 24.0363 103.597 24.1448C103.344 24.2533 103.145 24.407 103 24.606C102.855 24.7989 102.783 25.0219 102.783 25.2751C102.783 25.6066 102.895 25.8658 103.118 26.0527C103.341 26.2335 103.715 26.3661 104.239 26.4505L105.008 26.5771C105.725 26.6916 106.241 26.8845 106.554 27.1558C106.868 27.421 107.025 27.8038 107.025 28.3041C107.025 28.6537 106.925 28.9672 106.726 29.2445C106.527 29.5157 106.253 29.7297 105.903 29.8865C105.559 30.0432 105.164 30.1215 104.718 30.1215ZM107.333 30.0221L109.974 23.6927H110.489L113.12 30.0221H112.668L111.791 27.8791H108.653L107.766 30.0221H107.333ZM108.806 27.5084H111.637L110.227 24.0815L108.806 27.5084Z" fill="black"/>
</g>
<defs>
<clipPath id="clip0_29_859">
<rect width="112.478" height="32" fill="white" transform="translate(0.76123)"/>
</clipPath>
<clipPath id="clip1_29_859">
<rect width="74.88" height="20.0533" fill="white" transform="translate(38.3081 0.213379)"/>
</clipPath>
</defs>
</svg>
