<svg width="244" height="70" viewBox="0 0 244 70" fill="none" xmlns="http://www.w3.org/2000/svg">
<g clip-path="url(#clip0_29_878)">
<path d="M81.7109 43.4V1.31254H90.4461V43.4H81.7109ZM101.784 30.1292V23.2459H112.024C114.53 23.2459 116.478 22.6042 117.866 21.3209C119.274 20.0181 119.978 18.1709 119.978 15.7792V15.7209C119.978 13.3292 119.274 11.4917 117.866 10.2084C116.478 8.92504 114.53 8.28337 112.024 8.28337H101.784V1.31254H114.164C117.095 1.31254 119.66 1.91532 121.858 3.12087C124.056 4.30699 125.763 5.97921 126.977 8.13754C128.212 10.2959 128.828 12.8139 128.828 15.6917V15.75C128.828 18.6472 128.212 21.175 126.977 23.3334C125.763 25.4917 124.056 27.1639 121.858 28.35C119.66 29.5362 117.095 30.1292 114.164 30.1292H101.784ZM97.3879 43.4V1.31254H106.123V43.4H97.3879ZM127.411 43.4L141.989 1.31254H149.683V9.47921H147.022L136.58 43.4H127.411ZM135.25 33.1917L137.39 26.6H156.856L158.996 33.1917H135.25ZM157.637 43.4L147.195 9.47921V1.31254H152.257L166.806 43.4H157.637ZM185.462 44.1292C182.165 44.1292 179.282 43.6431 176.814 42.6709C174.365 41.6792 172.436 40.2695 171.029 38.4417C169.621 36.5945 168.83 34.3778 168.657 31.7917L168.628 31.325H176.872L176.929 31.6459C177.122 32.7347 177.604 33.6778 178.376 34.475C179.166 35.2528 180.188 35.8653 181.441 36.3125C182.695 36.7403 184.112 36.9542 185.694 36.9542C187.313 36.9542 188.702 36.7403 189.859 36.3125C191.035 35.8653 191.941 35.2431 192.577 34.4459C193.233 33.6292 193.561 32.6862 193.561 31.6167V31.5875C193.561 30.1681 193.002 29.0597 191.883 28.2625C190.784 27.4459 188.933 26.7653 186.33 26.2209L181.933 25.3459C177.826 24.5097 174.731 23.1 172.648 21.1167C170.566 19.1334 169.525 16.557 169.525 13.3875V13.3584C169.525 10.7917 170.21 8.55558 171.578 6.65004C172.947 4.72504 174.828 3.23754 177.219 2.18754C179.61 1.11809 182.348 0.583374 185.433 0.583374C188.653 0.583374 191.43 1.08893 193.764 2.10004C196.116 3.11115 197.948 4.54032 199.259 6.38754C200.57 8.23475 201.293 10.3834 201.428 12.8334L201.457 13.3875H193.214L193.185 13.0375C193.031 11.9292 192.616 10.9862 191.941 10.2084C191.266 9.41117 190.37 8.79867 189.251 8.37087C188.152 7.94308 186.879 7.72921 185.433 7.72921C183.948 7.72921 182.666 7.95283 181.586 8.40004C180.507 8.82783 179.677 9.42087 179.099 10.1792C178.54 10.9375 178.26 11.8222 178.26 12.8334V12.8625C178.26 14.1847 178.819 15.2542 179.937 16.0709C181.056 16.8875 182.811 17.5389 185.202 18.025L189.627 18.9292C192.539 19.5125 194.93 20.3195 196.8 21.35C198.671 22.3806 200.05 23.6834 200.937 25.2584C201.843 26.8139 202.296 28.6903 202.296 30.8875V30.9167C202.296 33.6195 201.621 35.9625 200.271 37.9459C198.941 39.9097 197.012 41.4362 194.486 42.525C191.98 43.5945 188.971 44.1292 185.462 44.1292ZM204.118 43.4L218.696 1.31254H226.39V9.47921H223.729L213.287 43.4H204.118ZM211.957 33.1917L214.097 26.6H233.563L235.703 33.1917H211.957ZM234.344 43.4L223.902 9.47921V1.31254H228.964L243.513 43.4H234.344Z" fill="white"/>
</g>
<path d="M130.985 65.6733V51.8278H136.537C137.439 51.8278 138.217 51.986 138.871 52.3025C139.525 52.619 140.022 53.0672 140.362 53.6475C140.715 54.2144 140.892 54.8869 140.892 55.665C140.892 56.443 140.715 57.1286 140.362 57.722C140.022 58.3023 139.525 58.7572 138.871 59.0868C138.217 59.4033 137.439 59.5615 136.537 59.5615H131.887V65.6733H130.985ZM131.887 58.711H136.498C137.622 58.711 138.479 58.4341 139.068 57.8802C139.669 57.3264 139.97 56.588 139.97 55.665C139.97 54.7683 139.669 54.0497 139.068 53.509C138.479 52.9552 137.622 52.6783 136.498 52.6783H131.887V58.711ZM145.281 65.8711C144.574 65.8711 143.953 65.7524 143.417 65.515C142.881 65.2646 142.462 64.9217 142.161 64.4865C141.86 64.0382 141.71 63.524 141.71 62.9437C141.71 62.047 142.057 61.3285 142.75 60.7878C143.443 60.234 144.365 59.9571 145.516 59.9571C146.667 59.9571 147.687 60.2406 148.576 60.8076V59.1857C148.576 58.289 148.334 57.6231 147.851 57.188C147.367 56.7397 146.674 56.5155 145.771 56.5155C145.326 56.5155 144.862 56.588 144.378 56.7331C143.894 56.8782 143.338 57.1155 142.711 57.4451L142.338 56.6737C142.953 56.3572 143.541 56.1265 144.104 55.9814C144.666 55.8232 145.228 55.7441 145.791 55.7441C146.955 55.7441 147.851 56.0276 148.478 56.5946C149.119 57.1484 149.44 57.9594 149.44 59.0274V65.6733H148.576V64.5854C148.132 64.9941 147.635 65.3106 147.085 65.5348C146.536 65.759 145.935 65.8711 145.281 65.8711ZM142.573 62.924C142.573 63.5569 142.835 64.0778 143.358 64.4865C143.881 64.8952 144.542 65.0997 145.339 65.0997C146.033 65.0997 146.641 64.981 147.164 64.7437C147.687 64.4932 148.158 64.1436 148.576 63.6954V61.6779C148.145 61.3483 147.674 61.1043 147.164 60.946C146.654 60.7878 146.072 60.7087 145.418 60.7087C144.568 60.7087 143.881 60.9131 143.358 61.3218C142.835 61.7306 142.573 62.2646 142.573 62.924ZM156.426 65.8711C155.538 65.8711 154.727 65.6469 153.994 65.1986C153.261 64.7503 152.679 64.1436 152.248 63.3789C151.829 62.6141 151.62 61.757 151.62 60.8076C151.62 59.8582 151.829 59.001 152.248 58.2363C152.679 57.4715 153.261 56.8649 153.994 56.4166C154.727 55.9683 155.538 55.7441 156.426 55.7441C157.081 55.7441 157.734 55.8759 158.388 56.1397C159.055 56.4034 159.637 56.766 160.134 57.2275L159.545 57.9396C159.127 57.5176 158.643 57.188 158.094 56.9506C157.558 56.7001 157.001 56.5748 156.426 56.5748C155.694 56.5748 155.027 56.766 154.425 57.1484C153.836 57.5176 153.366 58.0253 153.013 58.6714C152.673 59.3044 152.503 60.0164 152.503 60.8076C152.503 61.5987 152.673 62.3174 153.013 62.9635C153.366 63.5965 153.836 64.1041 154.425 64.4865C155.027 64.8557 155.694 65.0403 156.426 65.0403C157.001 65.0403 157.558 64.915 158.094 64.6645C158.643 64.414 159.127 64.0843 159.545 63.6756L160.134 64.3876C159.637 64.8492 159.055 65.2117 158.388 65.4755C157.734 65.7393 157.081 65.8711 156.426 65.8711ZM161.956 65.6733V51.8278L162.821 51.6102V60.4713L168.274 55.9419H169.491L163.802 60.6493L169.725 65.6733H168.412L162.821 60.8867V65.6733H161.956ZM173.52 65.8711C172.814 65.8711 172.193 65.7524 171.657 65.515C171.12 65.2646 170.702 64.9217 170.401 64.4865C170.099 64.0382 169.949 63.524 169.949 62.9437C169.949 62.047 170.296 61.3285 170.99 60.7878C171.683 60.234 172.604 59.9571 173.755 59.9571C174.906 59.9571 175.927 60.2406 176.815 60.8076V59.1857C176.815 58.289 176.573 57.6231 176.091 57.188C175.606 56.7397 174.913 56.5155 174.011 56.5155C173.566 56.5155 173.102 56.588 172.618 56.7331C172.133 56.8782 171.578 57.1155 170.95 57.4451L170.578 56.6737C171.192 56.3572 171.781 56.1265 172.343 55.9814C172.906 55.8232 173.468 55.7441 174.031 55.7441C175.194 55.7441 176.091 56.0276 176.717 56.5946C177.358 57.1484 177.678 57.9594 177.678 59.0274V65.6733H176.815V64.5854C176.371 64.9941 175.874 65.3106 175.324 65.5348C174.776 65.759 174.173 65.8711 173.52 65.8711ZM170.812 62.924C170.812 63.5569 171.074 64.0778 171.597 64.4865C172.121 64.8952 172.782 65.0997 173.578 65.0997C174.271 65.0997 174.88 64.981 175.404 64.7437C175.927 64.4932 176.397 64.1436 176.815 63.6954V61.6779C176.385 61.3483 175.913 61.1043 175.404 60.946C174.894 60.7878 174.311 60.7087 173.657 60.7087C172.808 60.7087 172.121 60.9131 171.597 61.3218C171.074 61.7306 170.812 62.2646 170.812 62.924ZM184.96 69.906C184.319 69.906 183.685 69.8138 183.056 69.6291C182.43 69.4445 181.853 69.1873 181.331 68.8577L181.821 68.1457C182.396 68.4753 182.92 68.7126 183.391 68.8577C183.875 69.0028 184.378 69.0753 184.902 69.0753C185.909 69.0753 186.674 68.8313 187.196 68.3435C187.72 67.8556 187.981 67.1303 187.981 66.1678V64.5063C187.104 65.4161 185.999 65.8711 184.666 65.8711C183.777 65.8711 182.966 65.6469 182.233 65.1986C181.501 64.7503 180.918 64.1436 180.488 63.3789C180.069 62.6141 179.859 61.757 179.859 60.8076C179.859 59.8582 180.069 59.001 180.488 58.2363C180.918 57.4715 181.501 56.8649 182.233 56.4166C182.966 55.9683 183.777 55.7441 184.666 55.7441C185.28 55.7441 185.875 55.8694 186.451 56.1199C187.026 56.3572 187.536 56.6804 187.981 57.0891V55.9419H188.844V66.1282C188.844 67.3676 188.505 68.3039 187.825 68.9368C187.158 69.5829 186.203 69.906 184.96 69.906ZM184.666 65.0403C185.385 65.0403 186.033 64.8952 186.608 64.6052C187.196 64.3019 187.654 63.9063 187.981 63.4184V58.1967C187.641 57.7352 187.176 57.3529 186.588 57.0495C185.999 56.7331 185.359 56.5748 184.666 56.5748C183.933 56.5748 183.266 56.766 182.664 57.1484C182.076 57.5176 181.605 58.0253 181.253 58.6714C180.912 59.3044 180.742 60.0164 180.742 60.8076C180.742 61.5987 180.912 62.3174 181.253 62.9635C181.605 63.5965 182.076 64.1041 182.664 64.4865C183.266 64.8557 183.933 65.0403 184.666 65.0403ZM191.518 65.6733V55.9419H192.381V65.6733H191.518ZM191.951 53.7464C191.741 53.7464 191.564 53.6739 191.42 53.5288C191.276 53.3837 191.204 53.2057 191.204 52.9948C191.204 52.7838 191.276 52.6058 191.42 52.4607C191.564 52.3156 191.741 52.2432 191.951 52.2432C192.173 52.2432 192.349 52.3156 192.479 52.4607C192.623 52.6058 192.695 52.7838 192.695 52.9948C192.695 53.2057 192.623 53.3837 192.479 53.5288C192.349 53.6739 192.173 53.7464 191.951 53.7464ZM195.043 65.6733V55.9419H195.906V57.3067C196.691 56.265 197.758 55.7441 199.105 55.7441C199.836 55.7441 200.478 55.9023 201.027 56.2188C201.589 56.5221 202.02 56.9573 202.322 57.5242C202.636 58.078 202.793 58.7241 202.793 59.4626V65.6733H201.93V59.6999C201.93 58.7241 201.661 57.9594 201.125 57.4055C200.589 56.8386 199.85 56.555 198.909 56.555C198.254 56.555 197.666 56.7133 197.143 57.0297C196.619 57.3331 196.207 57.7747 195.906 58.355V65.6733H195.043ZM210.077 69.906C209.435 69.906 208.802 69.8138 208.174 69.6291C207.545 69.4445 206.971 69.1873 206.448 68.8577L206.938 68.1457C207.513 68.4753 208.036 68.7126 208.508 68.8577C208.991 69.0028 209.495 69.0753 210.018 69.0753C211.025 69.0753 211.789 68.8313 212.313 68.3435C212.836 67.8556 213.098 67.1303 213.098 66.1678V64.5063C212.222 65.4161 211.116 65.8711 209.783 65.8711C208.893 65.8711 208.082 65.6469 207.349 65.1986C206.617 64.7503 206.036 64.1436 205.603 63.3789C205.185 62.6141 204.977 61.757 204.977 60.8076C204.977 59.8582 205.185 59.001 205.603 58.2363C206.036 57.4715 206.617 56.8649 207.349 56.4166C208.082 55.9683 208.893 55.7441 209.783 55.7441C210.398 55.7441 210.992 55.8694 211.567 56.1199C212.143 56.3572 212.654 56.6804 213.098 57.0891V55.9419H213.961V66.1282C213.961 67.3676 213.621 68.3039 212.94 68.9368C212.274 69.5829 211.319 69.906 210.077 69.906ZM209.783 65.0403C210.502 65.0403 211.149 64.8952 211.725 64.6052C212.313 64.3019 212.77 63.9063 213.098 63.4184V58.1967C212.758 57.7352 212.294 57.3529 211.705 57.0495C211.116 56.7331 210.476 56.5748 209.783 56.5748C209.05 56.5748 208.382 56.766 207.781 57.1484C207.193 57.5176 206.722 58.0253 206.368 58.6714C206.028 59.3044 205.859 60.0164 205.859 60.8076C205.859 61.5987 206.028 62.3174 206.368 62.9635C206.722 63.5965 207.193 64.1041 207.781 64.4865C208.382 64.8557 209.05 65.0403 209.783 65.0403ZM225.516 65.8908C224.417 65.8908 223.39 65.6666 222.435 65.2184C221.48 64.7568 220.644 64.0976 219.925 63.2404L220.631 62.647C221.284 63.4251 222.024 64.0185 222.847 64.4272C223.684 64.8359 224.575 65.0403 225.516 65.0403C226.301 65.0403 227.001 64.9019 227.616 64.625C228.23 64.3481 228.713 63.9723 229.067 63.4976C229.42 63.0097 229.596 62.4624 229.596 61.8559C229.596 61.0516 229.321 60.4384 228.773 60.0164C228.236 59.5813 227.327 59.2582 226.046 59.0472L224.379 58.7703C223.005 58.5461 221.998 58.1572 221.356 57.6033C220.716 57.0495 220.395 56.2913 220.395 55.3287C220.395 54.5903 220.585 53.9442 220.964 53.3904C221.356 52.8365 221.9 52.4014 222.593 52.0849C223.286 51.7685 224.077 51.6102 224.967 51.6102C225.868 51.6102 226.771 51.7685 227.674 52.0849C228.577 52.3883 229.433 52.8432 230.244 53.4497L229.694 54.2013C228.151 53.041 226.575 52.4607 224.967 52.4607C224.261 52.4607 223.632 52.5794 223.084 52.8168C222.533 53.0541 222.103 53.3904 221.788 53.8255C221.474 54.2475 221.318 54.7353 221.318 55.2892C221.318 56.0144 221.56 56.5815 222.043 56.9902C222.527 57.3858 223.338 57.6758 224.477 57.8605L226.144 58.1374C227.7 58.3879 228.819 58.8099 229.498 59.4033C230.178 59.9835 230.518 60.8207 230.518 61.9152C230.518 62.68 230.302 63.3657 229.872 63.9723C229.439 64.5656 228.845 65.0337 228.086 65.3766C227.34 65.7195 226.483 65.8908 225.516 65.8908ZM231.187 65.6733L236.916 51.8278H238.033L243.742 65.6733H242.761L240.858 60.9856H234.051L232.128 65.6733H231.187ZM234.384 60.1746H240.525L237.464 52.6783L234.384 60.1746Z" fill="white"/>
<defs>
<clipPath id="clip0_29_878">
<rect width="162.438" height="43.8667" fill="white" transform="translate(81.4507 0.466675)"/>
</clipPath>
</defs>
</svg>
