<svg width="528" height="150" viewBox="0 0 528 150" fill="none" xmlns="http://www.w3.org/2000/svg">
<g clip-path="url(#clip0_248_249)">
<path d="M176.562 93V2.8125H195.438V93H176.562ZM219.938 64.5625V49.8125H242.062C247.479 49.8125 251.688 48.4375 254.688 45.6875C257.729 42.8958 259.25 38.9375 259.25 33.8125V33.6875C259.25 28.5625 257.729 24.625 254.688 21.875C251.688 19.125 247.479 17.75 242.062 17.75H219.938V2.8125H246.688C253.021 2.8125 258.562 4.10417 263.312 6.6875C268.062 9.22917 271.75 12.8125 274.375 17.4375C277.042 22.0625 278.375 27.4583 278.375 33.625V33.75C278.375 39.9583 277.042 45.375 274.375 50C271.75 54.625 268.062 58.2083 263.312 60.75C258.562 63.2917 253.021 64.5625 246.688 64.5625H219.938ZM210.438 93V2.8125H229.312V93H210.438ZM275.312 93L306.812 2.8125H323.438V20.3125H317.688L295.125 93H275.312ZM292.25 71.125L296.875 57H338.938L343.562 71.125H292.25ZM340.625 93L318.062 20.3125V2.8125H329L360.438 93H340.625ZM400.75 94.5625C393.625 94.5625 387.396 93.5208 382.062 91.4375C376.771 89.3125 372.604 86.2917 369.562 82.375C366.521 78.4167 364.812 73.6667 364.438 68.125L364.375 67.125H382.188L382.312 67.8125C382.729 70.1458 383.771 72.1667 385.438 73.875C387.146 75.5417 389.354 76.8542 392.062 77.8125C394.771 78.7292 397.833 79.1875 401.25 79.1875C404.75 79.1875 407.75 78.7292 410.25 77.8125C412.792 76.8542 414.75 75.5208 416.125 73.8125C417.542 72.0625 418.25 70.0417 418.25 67.75V67.6875C418.25 64.6458 417.042 62.2708 414.625 60.5625C412.25 58.8125 408.25 57.3542 402.625 56.1875L393.125 54.3125C384.25 52.5208 377.562 49.5 373.062 45.25C368.562 41 366.312 35.4792 366.312 28.6875V28.625C366.312 23.125 367.792 18.3333 370.75 14.25C373.708 10.125 377.771 6.9375 382.938 4.6875C388.104 2.39583 394.021 1.25 400.688 1.25C407.646 1.25 413.646 2.33333 418.688 4.5C423.771 6.66667 427.729 9.72917 430.562 13.6875C433.396 17.6458 434.958 22.25 435.25 27.5L435.312 28.6875H417.5L417.438 27.9375C417.104 25.5625 416.208 23.5417 414.75 21.875C413.292 20.1667 411.354 18.8542 408.938 17.9375C406.562 17.0208 403.812 16.5625 400.688 16.5625C397.479 16.5625 394.708 17.0417 392.375 18C390.042 18.9167 388.25 20.1875 387 21.8125C385.792 23.4375 385.188 25.3333 385.188 27.5V27.5625C385.188 30.3958 386.396 32.6875 388.812 34.4375C391.229 36.1875 395.021 37.5833 400.188 38.625L409.75 40.5625C416.042 41.8125 421.208 43.5417 425.25 45.75C429.292 47.9583 432.271 50.75 434.188 54.125C436.146 57.4583 437.125 61.4792 437.125 66.1875V66.25C437.125 72.0417 435.667 77.0625 432.75 81.3125C429.875 85.5208 425.708 88.7917 420.25 91.125C414.833 93.4167 408.333 94.5625 400.75 94.5625ZM441.062 93L472.562 2.8125H489.188V20.3125H483.438L460.875 93H441.062ZM458 71.125L462.625 57H504.688L509.312 71.125H458ZM506.375 93L483.812 20.3125V2.8125H494.75L526.188 93H506.375Z" fill="black"/>
</g>
<path d="M283.035 140.728V111.059H295.032C296.982 111.059 298.663 111.399 300.076 112.077C301.489 112.755 302.563 113.715 303.298 114.959C304.061 116.174 304.443 117.615 304.443 119.282C304.443 120.949 304.061 122.418 303.298 123.69C302.563 124.933 301.489 125.908 300.076 126.614C298.663 127.293 296.982 127.632 295.032 127.632H284.985V140.728H283.035ZM284.985 125.809H294.947C297.377 125.809 299.228 125.216 300.5 124.029C301.8 122.842 302.45 121.26 302.45 119.282C302.45 117.36 301.8 115.821 300.5 114.662C299.228 113.475 297.377 112.882 294.947 112.882H284.985V125.809ZM313.926 141.152C312.4 141.152 311.057 140.898 309.898 140.389C308.74 139.853 307.836 139.118 307.185 138.185C306.535 137.225 306.21 136.123 306.21 134.879C306.21 132.958 306.959 131.418 308.457 130.259C309.955 129.073 311.947 128.479 314.434 128.479C316.921 128.479 319.125 129.087 321.047 130.302V126.826C321.047 124.905 320.524 123.478 319.479 122.546C318.433 121.585 316.935 121.105 314.985 121.105C314.025 121.105 313.021 121.26 311.976 121.571C310.93 121.882 309.729 122.39 308.372 123.097L307.567 121.444C308.895 120.765 310.167 120.271 311.382 119.96C312.597 119.621 313.813 119.452 315.028 119.452C317.543 119.452 319.479 120.059 320.835 121.274C322.22 122.461 322.913 124.199 322.913 126.487V140.728H321.047V138.397C320.087 139.273 319.013 139.951 317.826 140.432C316.639 140.912 315.339 141.152 313.926 141.152ZM308.076 134.837C308.076 136.193 308.641 137.309 309.771 138.185C310.902 139.061 312.329 139.499 314.053 139.499C315.551 139.499 316.865 139.245 317.995 138.736C319.125 138.2 320.143 137.451 321.047 136.49V132.167C320.115 131.46 319.097 130.938 317.995 130.599C316.893 130.259 315.635 130.09 314.222 130.09C312.385 130.09 310.902 130.528 309.771 131.404C308.641 132.28 308.076 133.424 308.076 134.837ZM338.01 141.152C336.089 141.152 334.337 140.672 332.754 139.711C331.17 138.751 329.913 137.451 328.98 135.812C328.076 134.173 327.624 132.336 327.624 130.302C327.624 128.267 328.076 126.431 328.98 124.792C329.913 123.153 331.17 121.853 332.754 120.893C334.337 119.932 336.089 119.452 338.01 119.452C339.424 119.452 340.835 119.734 342.249 120.299C343.689 120.864 344.948 121.641 346.021 122.63L344.749 124.156C343.845 123.252 342.799 122.546 341.613 122.037C340.454 121.5 339.252 121.232 338.01 121.232C336.427 121.232 334.986 121.641 333.684 122.461C332.413 123.252 331.396 124.34 330.634 125.724C329.899 127.081 329.531 128.607 329.531 130.302C329.531 131.997 329.899 133.537 330.634 134.922C331.396 136.278 332.413 137.366 333.684 138.185C334.986 138.976 336.427 139.372 338.01 139.372C339.252 139.372 340.454 139.104 341.613 138.567C342.799 138.03 343.845 137.323 344.749 136.448L346.021 137.973C344.948 138.962 343.689 139.739 342.249 140.305C340.835 140.87 339.424 141.152 338.01 141.152ZM349.959 140.728V111.059L351.827 110.593V129.581L363.61 119.875H366.24L353.946 129.963L366.746 140.728H363.908L351.827 130.471V140.728H349.959ZM374.946 141.152C373.42 141.152 372.078 140.898 370.919 140.389C369.76 139.853 368.856 139.118 368.207 138.185C367.554 137.225 367.23 136.123 367.23 134.879C367.23 132.958 367.978 131.418 369.479 130.259C370.975 129.073 372.966 128.479 375.453 128.479C377.94 128.479 380.146 129.087 382.067 130.302V126.826C382.067 124.905 381.543 123.478 380.5 122.546C379.454 121.585 377.957 121.105 376.006 121.105C375.046 121.105 374.042 121.26 372.996 121.571C371.949 121.882 370.75 122.39 369.392 123.097L368.588 121.444C369.916 120.765 371.187 120.271 372.403 119.96C373.618 119.621 374.834 119.452 376.049 119.452C378.563 119.452 380.5 120.059 381.855 121.274C383.239 122.461 383.931 124.199 383.931 126.487V140.728H382.067V138.397C381.106 139.273 380.033 139.951 378.844 140.432C377.659 140.912 376.357 141.152 374.946 141.152ZM369.094 134.837C369.094 136.193 369.661 137.309 370.79 138.185C371.923 139.061 373.35 139.499 375.072 139.499C376.569 139.499 377.884 139.245 379.016 138.736C380.146 138.2 381.163 137.451 382.067 136.49V132.167C381.136 131.46 380.116 130.938 379.016 130.599C377.914 130.259 376.655 130.09 375.241 130.09C373.406 130.09 371.923 130.528 370.79 131.404C369.661 132.28 369.094 133.424 369.094 134.837ZM399.666 149.799C398.281 149.799 396.91 149.601 395.552 149.205C394.198 148.809 392.953 148.258 391.823 147.552L392.883 146.026C394.125 146.733 395.258 147.241 396.274 147.552C397.321 147.863 398.407 148.018 399.54 148.018C401.716 148.018 403.368 147.496 404.498 146.45C405.63 145.405 406.193 143.851 406.193 141.788V138.228C404.299 140.177 401.911 141.152 399.03 141.152C397.109 141.152 395.357 140.672 393.774 139.711C392.191 138.751 390.932 137.451 390.002 135.812C389.098 134.173 388.644 132.336 388.644 130.302C388.644 128.267 389.098 126.431 390.002 124.792C390.932 123.153 392.191 121.853 393.774 120.893C395.357 119.932 397.109 119.452 399.03 119.452C400.358 119.452 401.643 119.72 402.888 120.257C404.13 120.765 405.233 121.458 406.193 122.334V119.875H408.058V141.703C408.058 144.359 407.326 146.365 405.855 147.722C404.415 149.106 402.352 149.799 399.666 149.799ZM399.03 139.372C400.583 139.372 401.984 139.061 403.226 138.44C404.498 137.79 405.488 136.942 406.193 135.897V124.707C405.458 123.718 404.455 122.899 403.183 122.249C401.911 121.571 400.527 121.232 399.03 121.232C397.447 121.232 396.006 121.641 394.705 122.461C393.433 123.252 392.416 124.34 391.654 125.724C390.919 127.081 390.552 128.607 390.552 130.302C390.552 131.997 390.919 133.537 391.654 134.922C392.416 136.278 393.433 137.366 394.705 138.185C396.006 138.976 397.447 139.372 399.03 139.372ZM413.837 140.728V119.875H415.701V140.728H413.837ZM414.771 115.171C414.317 115.171 413.936 115.015 413.625 114.705C413.314 114.394 413.158 114.012 413.158 113.56C413.158 113.108 413.314 112.727 413.625 112.416C413.936 112.105 414.317 111.95 414.771 111.95C415.251 111.95 415.632 112.105 415.913 112.416C416.225 112.727 416.38 113.108 416.38 113.56C416.38 114.012 416.225 114.394 415.913 114.705C415.632 115.015 415.251 115.171 414.771 115.171ZM421.454 140.728V119.875H423.319V122.8C425.014 120.568 427.319 119.452 430.23 119.452C431.81 119.452 433.198 119.791 434.383 120.469C435.599 121.119 436.529 122.051 437.182 123.266C437.861 124.453 438.199 125.837 438.199 127.42V140.728H436.334V127.928C436.334 125.837 435.754 124.199 434.595 123.012C433.436 121.797 431.84 121.189 429.806 121.189C428.392 121.189 427.121 121.528 425.991 122.207C424.859 122.857 423.968 123.803 423.319 125.046V140.728H421.454ZM453.94 149.799C452.552 149.799 451.184 149.601 449.826 149.205C448.468 148.809 447.226 148.258 446.097 147.552L447.157 146.026C448.399 146.733 449.528 147.241 450.548 147.552C451.591 147.863 452.681 148.018 453.81 148.018C455.986 148.018 457.639 147.496 458.771 146.45C459.901 145.405 460.467 143.851 460.467 141.788V138.228C458.573 140.177 456.185 141.152 453.304 141.152C451.38 141.152 449.628 140.672 448.045 139.711C446.461 138.751 445.206 137.451 444.272 135.812C443.368 134.173 442.918 132.336 442.918 130.302C442.918 128.267 443.368 126.431 444.272 124.792C445.206 123.153 446.461 121.853 448.045 120.893C449.628 119.932 451.38 119.452 453.304 119.452C454.632 119.452 455.917 119.72 457.159 120.257C458.404 120.765 459.507 121.458 460.467 122.334V119.875H462.332V141.703C462.332 144.359 461.596 146.365 460.126 147.722C458.685 149.106 456.622 149.799 453.94 149.799ZM453.304 139.372C454.857 139.372 456.254 139.061 457.5 138.44C458.771 137.79 459.758 136.942 460.467 135.897V124.707C459.732 123.718 458.728 122.899 457.457 122.249C456.185 121.571 454.801 121.232 453.304 121.232C451.721 121.232 450.277 121.641 448.978 122.461C447.707 123.252 446.69 124.34 445.925 125.724C445.19 127.081 444.825 128.607 444.825 130.302C444.825 131.997 445.19 133.537 445.925 134.922C446.69 136.278 447.707 137.366 448.978 138.185C450.277 138.976 451.721 139.372 453.304 139.372ZM487.299 141.195C484.925 141.195 482.706 140.714 480.643 139.754C478.579 138.764 476.771 137.352 475.218 135.515L476.745 134.244C478.155 135.911 479.755 137.182 481.534 138.058C483.342 138.934 485.266 139.372 487.299 139.372C488.995 139.372 490.509 139.075 491.837 138.482C493.165 137.889 494.208 137.083 494.973 136.066C495.735 135.021 496.115 133.848 496.115 132.548C496.115 130.825 495.523 129.511 494.337 128.607C493.178 127.674 491.214 126.982 488.445 126.53L484.842 125.936C481.875 125.456 479.699 124.622 478.311 123.436C476.927 122.249 476.235 120.624 476.235 118.561C476.235 116.979 476.645 115.595 477.463 114.408C478.311 113.221 479.487 112.289 480.984 111.61C482.481 110.932 484.19 110.593 486.114 110.593C488.061 110.593 490.012 110.932 491.962 111.61C493.913 112.26 495.764 113.235 497.516 114.535L496.327 116.146C492.992 113.659 489.588 112.416 486.114 112.416C484.587 112.416 483.229 112.67 482.044 113.179C480.855 113.687 479.924 114.408 479.245 115.34C478.566 116.245 478.228 117.29 478.228 118.477C478.228 120.031 478.752 121.246 479.795 122.122C480.841 122.969 482.593 123.591 485.054 123.987L488.657 124.58C492.019 125.117 494.436 126.021 495.903 127.293C497.374 128.536 498.109 130.33 498.109 132.675C498.109 134.314 497.642 135.784 496.712 137.083C495.778 138.355 494.493 139.358 492.853 140.093C491.24 140.827 489.389 141.195 487.299 141.195ZM499.553 140.728L511.933 111.059H514.347L526.683 140.728H524.564L520.451 130.683H505.743L501.587 140.728H499.553ZM506.461 128.946H519.732L513.118 112.882L506.461 128.946Z" fill="black"/>
<defs>
<clipPath id="clip0_248_249">
<rect width="351" height="94" fill="white" transform="translate(176 1)"/>
</clipPath>
</defs>
</svg>
